M48
; DRILL file {KiCad (6.0.6)} date Thu Nov  2 22:54:37 2023
; FORMAT={-:-/ absolute / inch / decimal}
; #@! TF.CreationDate,2023-11-02T22:54:37+01:00
; #@! TF.GenerationSoftware,Kicad,Pcbnew,(6.0.6)
; #@! TF.FileFunction,Plated,1,2,PTH
FMAT,2
INCH
; #@! TA.AperFunction,Plated,PTH,ViaDrill
T1C0.0157
; #@! TA.AperFunction,Plated,PTH,ComponentDrill
T2C0.0295
; #@! TA.AperFunction,Plated,PTH,ComponentDrill
T3C0.0315
; #@! TA.AperFunction,Plated,PTH,ComponentDrill
T4C0.0354
; #@! TA.AperFunction,Plated,PTH,ComponentDrill
T5C0.0394
; #@! TA.AperFunction,Plated,PTH,ComponentDrill
T6C0.0433
; #@! TA.AperFunction,Plated,PTH,ComponentDrill
T7C0.0598
%
G90
G05
T1
X2.7964Y-2.8365
X2.9125Y-2.581
X2.9711Y-2.761
T2
X1.85Y-4.0
X1.9Y-4.0
X1.95Y-4.0
X2.15Y-4.0
X2.2Y-4.0
X2.25Y-4.0
T3
X0.75Y-2.25
X0.75Y-2.95
X0.8Y-3.7
X0.85Y-2.25
X0.85Y-2.95
X0.95Y-2.25
X0.95Y-2.95
X1.05Y-2.25
X1.05Y-2.95
X1.15Y-2.25
X1.15Y-2.95
X1.2Y-3.7
X1.25Y-2.25
X1.25Y-2.95
X1.3Y-1.9
X1.3Y-1.9984
X1.35Y-2.25
X1.35Y-2.95
X1.4Y-3.1
X1.4Y-3.5
X1.45Y-2.25
X1.45Y-2.95
X1.5Y-3.7
X1.7Y-3.1
X1.7Y-3.5
X1.9Y-3.1
X1.9Y-3.5
X1.9Y-3.7
X1.9504Y-1.2504
X1.9504Y-1.3504
X1.9504Y-1.4504
X1.9504Y-1.5504
X2.1Y-3.1
X2.1Y-3.5
X2.2Y-3.7
X2.2504Y-1.2504
X2.2504Y-1.3504
X2.2504Y-1.4504
X2.2504Y-1.5504
X2.3Y-3.1
X2.3Y-3.5
X2.5Y-1.25
X2.5Y-1.55
X2.6Y-3.7
X2.7Y-1.15
X2.7Y-1.65
X2.9Y-1.2
X2.9Y-1.6
X2.9Y-3.7
X3.1Y-1.2
X3.1Y-1.6
X3.3Y-3.7
T4
X2.6Y-3.3
X2.6Y-3.4
X2.9Y-3.3
X2.9Y-3.4
T5
X0.9Y-1.8
X0.9Y-1.9969
X1.2Y-3.3
X1.2Y-3.4
X1.4Y-4.1
X1.5Y-4.1
X1.85Y-1.7996
X1.85Y-2.3996
X1.95Y-1.7996
X1.95Y-2.3996
X2.05Y-1.7996
X2.05Y-2.3996
X2.15Y-1.7996
X2.15Y-2.3996
X2.25Y-1.7996
X2.25Y-2.3996
X2.35Y-1.7996
X2.35Y-2.3996
X2.45Y-1.7996
X2.45Y-2.3996
X2.55Y-1.7996
X2.55Y-2.3996
X2.6Y-4.1
X2.65Y-1.7996
X2.65Y-2.3996
X2.7Y-4.1
X2.75Y-1.7996
X2.75Y-2.3996
X2.85Y-1.7996
X2.85Y-2.3996
X2.9Y-2.8
X2.9Y-2.9
X2.9Y-3.0
X2.95Y-1.7996
X2.95Y-2.3996
X3.05Y-1.7996
X3.05Y-2.3996
X3.15Y-1.7996
X3.15Y-2.3996
X3.25Y-1.7996
X3.25Y-2.3996
X3.3Y-1.3
X3.3Y-1.4
X3.3Y-1.5
X3.3Y-1.6
T6
X0.8Y-1.3
X0.8Y-1.4
X0.8Y-1.5
X1.1Y-1.2
X1.1Y-1.6
X1.3Y-1.2
X1.3Y-1.6
X1.5Y-1.2
X1.5Y-1.6
X1.7Y-1.2
X1.7Y-1.6
X1.7114Y-2.672
X1.7114Y-2.928
X1.8886Y-2.672
X1.8886Y-2.928
X2.1114Y-2.672
X2.1114Y-2.928
X2.2886Y-2.672
X2.2886Y-2.928
X2.5114Y-2.672
X2.5114Y-2.928
X2.6886Y-2.672
X2.6886Y-2.928
T7
X0.9Y-3.2
X0.9Y-3.4
X0.9Y-4.1
X1.0Y-0.9
X1.1Y-4.1
X1.2Y-0.9
X2.7Y-0.9
X2.9Y-0.9
X3.0Y-4.1
X3.2Y-2.7
X3.2Y-2.9
X3.2Y-3.1
X3.2Y-4.1
T0
M30
