%TF.GenerationSoftware,KiCad,Pcbnew,(6.0.6)*%
%TF.CreationDate,2023-11-02T23:17:45+01:00*%
%TF.ProjectId,DA02,44413032-2e6b-4696-9361-645f70636258,1.0*%
%TF.SameCoordinates,Original*%
%TF.FileFunction,Other,User*%
%FSLAX46Y46*%
G04 Gerber Fmt 4.6, Leading zero omitted, Abs format (unit mm)*
G04 Created by KiCad (PCBNEW (6.0.6)) date 2023-11-02 23:17:45*
%MOMM*%
%LPD*%
G01*
G04 APERTURE LIST*
%ADD10C,0.050000*%
G04 APERTURE END LIST*
D10*
%TO.C,R10*%
X67090000Y-95480000D02*
X67090000Y-92480000D01*
X54830000Y-92480000D02*
X54830000Y-95480000D01*
X54830000Y-95480000D02*
X67090000Y-95480000D01*
X67090000Y-92480000D02*
X54830000Y-92480000D01*
%TO.C,D4*%
X31420000Y-29130000D02*
X31420000Y-41990000D01*
X34620000Y-41990000D02*
X34620000Y-29130000D01*
X34620000Y-29130000D02*
X31420000Y-29130000D01*
X31420000Y-41990000D02*
X34620000Y-41990000D01*
%TO.C,Q2*%
X58610000Y-104330000D02*
X53150000Y-104330000D01*
X53150000Y-99590000D02*
X58610000Y-99590000D01*
X53150000Y-99590000D02*
X53150000Y-104330000D01*
X58610000Y-104330000D02*
X58610000Y-99590000D01*
%TO.C,U2*%
X48440000Y-30210000D02*
X48440000Y-40910000D01*
X58240000Y-40910000D02*
X58240000Y-30210000D01*
X48440000Y-40910000D02*
X58240000Y-40910000D01*
X58240000Y-30210000D02*
X48440000Y-30210000D01*
%TO.C,J6*%
X33760000Y-105940000D02*
X39910000Y-105940000D01*
X33760000Y-102340000D02*
X33760000Y-105940000D01*
X39910000Y-105940000D02*
X39910000Y-102340000D01*
X39910000Y-102340000D02*
X33760000Y-102340000D01*
%TO.C,J4*%
X71860000Y-69350000D02*
X71860000Y-78000000D01*
X71860000Y-78000000D02*
X75460000Y-78000000D01*
X75460000Y-78000000D02*
X75460000Y-69350000D01*
X75460000Y-69350000D02*
X71860000Y-69350000D01*
%TO.C,R4*%
X41680000Y-89950000D02*
X44680000Y-89950000D01*
X41680000Y-77690000D02*
X41680000Y-89950000D01*
X44680000Y-89950000D02*
X44680000Y-77690000D01*
X44680000Y-77690000D02*
X41680000Y-77690000D01*
%TO.C,J8*%
X64240000Y-105940000D02*
X70390000Y-105940000D01*
X64240000Y-102340000D02*
X64240000Y-105940000D01*
X70390000Y-105940000D02*
X70390000Y-102340000D01*
X70390000Y-102340000D02*
X64240000Y-102340000D01*
%TO.C,H4*%
X21230000Y-109220000D02*
G75*
G03*
X21230000Y-109220000I-3450000J0D01*
G01*
%TO.C,A1*%
X42930000Y-62480000D02*
X42930000Y-44200000D01*
X42930000Y-62480000D02*
X89150000Y-62480000D01*
X89150000Y-44200000D02*
X89150000Y-62480000D01*
X89150000Y-44200000D02*
X42930000Y-44200000D01*
%TO.C,D2*%
X29540000Y-29130000D02*
X26340000Y-29130000D01*
X26340000Y-29130000D02*
X26340000Y-41990000D01*
X29540000Y-41990000D02*
X29540000Y-29130000D01*
X26340000Y-41990000D02*
X29540000Y-41990000D01*
%TO.C,C1*%
X28110000Y-48220000D02*
G75*
G03*
X28110000Y-48220000I-5250000J0D01*
G01*
%TO.C,SW2*%
X59630000Y-75870000D02*
X59630000Y-75620000D01*
X52130000Y-66370000D02*
X52380000Y-66370000D01*
X52380000Y-66370000D02*
X59380000Y-66370000D01*
X59380000Y-75870000D02*
X59630000Y-75870000D01*
X59380000Y-75870000D02*
X52380000Y-75870000D01*
X52130000Y-66620000D02*
X52130000Y-66370000D01*
X52130000Y-75870000D02*
X52130000Y-75620000D01*
X59630000Y-66370000D02*
X59380000Y-66370000D01*
X52130000Y-75620000D02*
X52130000Y-66620000D01*
X59630000Y-66620000D02*
X59630000Y-66370000D01*
X59630000Y-66620000D02*
X59630000Y-75620000D01*
X52380000Y-75870000D02*
X52130000Y-75870000D01*
%TO.C,R8*%
X19270000Y-95480000D02*
X31530000Y-95480000D01*
X31530000Y-95480000D02*
X31530000Y-92480000D01*
X31530000Y-92480000D02*
X19270000Y-92480000D01*
X19270000Y-92480000D02*
X19270000Y-95480000D01*
%TO.C,R6*%
X54840000Y-89950000D02*
X54840000Y-77690000D01*
X54840000Y-77690000D02*
X51840000Y-77690000D01*
X51840000Y-89950000D02*
X54840000Y-89950000D01*
X51840000Y-77690000D02*
X51840000Y-89950000D01*
%TO.C,U1*%
X21830000Y-30310000D02*
X16920000Y-30310000D01*
X21830000Y-40810000D02*
X21830000Y-30310000D01*
X16920000Y-40810000D02*
X21830000Y-40810000D01*
X16920000Y-30310000D02*
X16920000Y-40810000D01*
%TO.C,R7*%
X56920000Y-77690000D02*
X56920000Y-89950000D01*
X59920000Y-89950000D02*
X59920000Y-77690000D01*
X59920000Y-77690000D02*
X56920000Y-77690000D01*
X56920000Y-89950000D02*
X59920000Y-89950000D01*
%TO.C,H3*%
X89810000Y-109220000D02*
G75*
G03*
X89810000Y-109220000I-3450000J0D01*
G01*
%TO.C,J11*%
X28680000Y-88170000D02*
X32280000Y-88170000D01*
X32280000Y-88170000D02*
X32280000Y-82020000D01*
X28680000Y-82020000D02*
X28680000Y-88170000D01*
X32280000Y-82020000D02*
X28680000Y-82020000D01*
%TO.C,H1*%
X21230000Y-17780000D02*
G75*
G03*
X21230000Y-17780000I-3450000J0D01*
G01*
%TO.C,C2*%
X36420000Y-49510000D02*
G75*
G03*
X36420000Y-49510000I-3400000J0D01*
G01*
%TO.C,R5*%
X49760000Y-89950000D02*
X49760000Y-77690000D01*
X46760000Y-89950000D02*
X49760000Y-89950000D01*
X46760000Y-77690000D02*
X46760000Y-89950000D01*
X49760000Y-77690000D02*
X46760000Y-77690000D01*
%TO.C,J10*%
X18860000Y-89070000D02*
X26860000Y-89070000D01*
X18860000Y-89070000D02*
X18860000Y-78570000D01*
X26860000Y-78570000D02*
X26860000Y-89070000D01*
X26860000Y-78570000D02*
X18860000Y-78570000D01*
%TO.C,J5*%
X82020000Y-42420000D02*
X85620000Y-42420000D01*
X85620000Y-42420000D02*
X85620000Y-31220000D01*
X85620000Y-31220000D02*
X82020000Y-31220000D01*
X82020000Y-31220000D02*
X82020000Y-42420000D01*
%TO.C,U3*%
X37680000Y-75780000D02*
X18200000Y-75780000D01*
X18200000Y-75780000D02*
X18200000Y-56300000D01*
X18200000Y-56300000D02*
X37680000Y-56300000D01*
%TO.C,SW3*%
X69790000Y-66370000D02*
X69540000Y-66370000D01*
X62540000Y-66370000D02*
X69540000Y-66370000D01*
X69790000Y-75870000D02*
X69790000Y-75620000D01*
X62290000Y-66620000D02*
X62290000Y-66370000D01*
X69790000Y-66620000D02*
X69790000Y-66370000D01*
X69540000Y-75870000D02*
X62540000Y-75870000D01*
X69790000Y-66620000D02*
X69790000Y-75620000D01*
X62290000Y-75870000D02*
X62290000Y-75620000D01*
X62290000Y-75620000D02*
X62290000Y-66620000D01*
X69540000Y-75870000D02*
X69790000Y-75870000D01*
X62290000Y-66370000D02*
X62540000Y-66370000D01*
X62540000Y-75870000D02*
X62290000Y-75870000D01*
%TO.C,J7*%
X30650000Y-108140000D02*
X20150000Y-108140000D01*
X20150000Y-100140000D02*
X20150000Y-108140000D01*
X30650000Y-108140000D02*
X30650000Y-100140000D01*
X20150000Y-100140000D02*
X30650000Y-100140000D01*
%TO.C,R9*%
X49310000Y-95480000D02*
X49310000Y-92480000D01*
X49310000Y-92480000D02*
X37050000Y-92480000D01*
X37050000Y-95480000D02*
X49310000Y-95480000D01*
X37050000Y-92480000D02*
X37050000Y-95480000D01*
%TO.C,H2*%
X89810000Y-17780000D02*
G75*
G03*
X89810000Y-17780000I-3450000J0D01*
G01*
%TO.C,SW1*%
X41970000Y-75870000D02*
X41970000Y-75620000D01*
X49470000Y-66620000D02*
X49470000Y-66370000D01*
X42220000Y-75870000D02*
X41970000Y-75870000D01*
X42220000Y-66370000D02*
X49220000Y-66370000D01*
X49220000Y-75870000D02*
X49470000Y-75870000D01*
X41970000Y-75620000D02*
X41970000Y-66620000D01*
X49470000Y-75870000D02*
X49470000Y-75620000D01*
X49470000Y-66370000D02*
X49220000Y-66370000D01*
X41970000Y-66370000D02*
X42220000Y-66370000D01*
X41970000Y-66620000D02*
X41970000Y-66370000D01*
X49470000Y-66620000D02*
X49470000Y-75620000D01*
X49220000Y-75870000D02*
X42220000Y-75870000D01*
%TO.C,D6*%
X68290000Y-87510000D02*
X68290000Y-82660000D01*
X68290000Y-82660000D02*
X63790000Y-82660000D01*
X63790000Y-87510000D02*
X68290000Y-87510000D01*
X63790000Y-82660000D02*
X63790000Y-87510000D01*
%TO.C,Q1*%
X45530000Y-99590000D02*
X45530000Y-104330000D01*
X50990000Y-104330000D02*
X45530000Y-104330000D01*
X45530000Y-99590000D02*
X50990000Y-99590000D01*
X50990000Y-104330000D02*
X50990000Y-99590000D01*
%TO.C,D5*%
X64750000Y-40420000D02*
X64750000Y-30700000D01*
X64750000Y-30700000D02*
X62250000Y-30700000D01*
X62250000Y-30700000D02*
X62250000Y-40420000D01*
X62250000Y-40420000D02*
X64750000Y-40420000D01*
%TO.C,R12*%
X34060000Y-89950000D02*
X37060000Y-89950000D01*
X37060000Y-89950000D02*
X37060000Y-77690000D01*
X37060000Y-77690000D02*
X34060000Y-77690000D01*
X34060000Y-77690000D02*
X34060000Y-89950000D01*
%TO.C,D1*%
X44780000Y-41990000D02*
X44780000Y-29130000D01*
X44780000Y-29130000D02*
X41580000Y-29130000D01*
X41580000Y-29130000D02*
X41580000Y-41990000D01*
X41580000Y-41990000D02*
X44780000Y-41990000D01*
%TO.C,J9*%
X83990000Y-108140000D02*
X83990000Y-100140000D01*
X73490000Y-100140000D02*
X83990000Y-100140000D01*
X73490000Y-100140000D02*
X73490000Y-108140000D01*
X83990000Y-108140000D02*
X73490000Y-108140000D01*
%TO.C,R1*%
X70430000Y-42960000D02*
X70430000Y-28160000D01*
X66730000Y-42960000D02*
X70430000Y-42960000D01*
X70430000Y-28160000D02*
X66730000Y-28160000D01*
X66730000Y-28160000D02*
X66730000Y-42960000D01*
%TO.C,R2*%
X72160000Y-41690000D02*
X75160000Y-41690000D01*
X75160000Y-29430000D02*
X72160000Y-29430000D01*
X72160000Y-29430000D02*
X72160000Y-41690000D01*
X75160000Y-41690000D02*
X75160000Y-29430000D01*
%TO.C,D3*%
X39700000Y-29130000D02*
X36500000Y-29130000D01*
X36500000Y-41990000D02*
X39700000Y-41990000D01*
X36500000Y-29130000D02*
X36500000Y-41990000D01*
X39700000Y-41990000D02*
X39700000Y-29130000D01*
%TO.C,D7*%
X71410000Y-82660000D02*
X71410000Y-87510000D01*
X75910000Y-82660000D02*
X71410000Y-82660000D01*
X71410000Y-87510000D02*
X75910000Y-87510000D01*
X75910000Y-87510000D02*
X75910000Y-82660000D01*
%TO.C,R11*%
X84870000Y-92480000D02*
X72610000Y-92480000D01*
X72610000Y-95480000D02*
X84870000Y-95480000D01*
X72610000Y-92480000D02*
X72610000Y-95480000D01*
X84870000Y-95480000D02*
X84870000Y-92480000D01*
%TO.C,J1*%
X22690000Y-18860000D02*
X22690000Y-26860000D01*
X22690000Y-18860000D02*
X33190000Y-18860000D01*
X33190000Y-26860000D02*
X33190000Y-18860000D01*
X33190000Y-26860000D02*
X22690000Y-26860000D01*
%TO.C,J3*%
X77280000Y-81460000D02*
X85280000Y-81460000D01*
X85280000Y-65860000D02*
X77280000Y-65860000D01*
X77280000Y-81460000D02*
X77280000Y-65860000D01*
X85280000Y-65860000D02*
X85280000Y-81460000D01*
%TO.C,J2*%
X65870000Y-18860000D02*
X76370000Y-18860000D01*
X76370000Y-26860000D02*
X65870000Y-26860000D01*
X65870000Y-18860000D02*
X65870000Y-26860000D01*
X76370000Y-26860000D02*
X76370000Y-18860000D01*
%TO.C,R3*%
X80240000Y-29430000D02*
X77240000Y-29430000D01*
X77240000Y-41690000D02*
X80240000Y-41690000D01*
X77240000Y-29430000D02*
X77240000Y-41690000D01*
X80240000Y-41690000D02*
X80240000Y-29430000D01*
%TD*%
M02*
