%TF.GenerationSoftware,KiCad,Pcbnew,(6.0.6)*%
%TF.CreationDate,2023-11-02T23:17:45+01:00*%
%TF.ProjectId,DA02,44413032-2e6b-4696-9361-645f70636258,1.0*%
%TF.SameCoordinates,Original*%
%TF.FileFunction,Legend,Top*%
%TF.FilePolarity,Positive*%
%FSLAX46Y46*%
G04 Gerber Fmt 4.6, Leading zero omitted, Abs format (unit mm)*
G04 Created by KiCad (PCBNEW (6.0.6)) date 2023-11-02 23:17:45*
%MOMM*%
%LPD*%
G01*
G04 APERTURE LIST*
%ADD10C,0.120000*%
%ADD11C,0.150000*%
G04 APERTURE END LIST*
D10*
X36896336Y-109220000D02*
X36896336Y-106700051D01*
X31436447Y-109220000D02*
X36896336Y-109220000D01*
X67734253Y-109220000D02*
X67734253Y-106661870D01*
X73660000Y-109220000D02*
X67734253Y-109220000D01*
D11*
X37719047Y-101671428D02*
X38480952Y-101671428D01*
X35179047Y-101671428D02*
X35940952Y-101671428D01*
X35560000Y-102052380D02*
X35560000Y-101290476D01*
X65659047Y-101671428D02*
X66420952Y-101671428D01*
X66040000Y-102052380D02*
X66040000Y-101290476D01*
X86764761Y-37536190D02*
X86812380Y-37393333D01*
X86812380Y-37155238D01*
X86764761Y-37060000D01*
X86717142Y-37012380D01*
X86621904Y-36964761D01*
X86526666Y-36964761D01*
X86431428Y-37012380D01*
X86383809Y-37060000D01*
X86336190Y-37155238D01*
X86288571Y-37345714D01*
X86240952Y-37440952D01*
X86193333Y-37488571D01*
X86098095Y-37536190D01*
X86002857Y-37536190D01*
X85907619Y-37488571D01*
X85860000Y-37440952D01*
X85812380Y-37345714D01*
X85812380Y-37107619D01*
X85860000Y-36964761D01*
X86764761Y-36155238D02*
X86812380Y-36250476D01*
X86812380Y-36440952D01*
X86764761Y-36536190D01*
X86669523Y-36583809D01*
X86288571Y-36583809D01*
X86193333Y-36536190D01*
X86145714Y-36440952D01*
X86145714Y-36250476D01*
X86193333Y-36155238D01*
X86288571Y-36107619D01*
X86383809Y-36107619D01*
X86479047Y-36583809D01*
X86812380Y-35679047D02*
X86145714Y-35679047D01*
X86336190Y-35679047D02*
X86240952Y-35631428D01*
X86193333Y-35583809D01*
X86145714Y-35488571D01*
X86145714Y-35393333D01*
X86812380Y-35060000D02*
X86145714Y-35060000D01*
X85812380Y-35060000D02*
X85860000Y-35107619D01*
X85907619Y-35060000D01*
X85860000Y-35012380D01*
X85812380Y-35060000D01*
X85907619Y-35060000D01*
X86812380Y-34155238D02*
X86288571Y-34155238D01*
X86193333Y-34202857D01*
X86145714Y-34298095D01*
X86145714Y-34488571D01*
X86193333Y-34583809D01*
X86764761Y-34155238D02*
X86812380Y-34250476D01*
X86812380Y-34488571D01*
X86764761Y-34583809D01*
X86669523Y-34631428D01*
X86574285Y-34631428D01*
X86479047Y-34583809D01*
X86431428Y-34488571D01*
X86431428Y-34250476D01*
X86383809Y-34155238D01*
X86812380Y-33536190D02*
X86764761Y-33631428D01*
X86669523Y-33679047D01*
X85812380Y-33679047D01*
X80899047Y-99131428D02*
X81660952Y-99131428D01*
X63382582Y-64990249D02*
X63858772Y-64990249D01*
X63287344Y-65275963D02*
X63620677Y-64275963D01*
X63954010Y-65275963D01*
X64287344Y-64609297D02*
X64287344Y-65275963D01*
X64287344Y-64704535D02*
X64334963Y-64656916D01*
X64430201Y-64609297D01*
X64573058Y-64609297D01*
X64668296Y-64656916D01*
X64715915Y-64752154D01*
X64715915Y-65275963D01*
X65192106Y-65275963D02*
X65192106Y-64609297D01*
X65192106Y-64275963D02*
X65144487Y-64323583D01*
X65192106Y-64371202D01*
X65239725Y-64323583D01*
X65192106Y-64275963D01*
X65192106Y-64371202D01*
X65668296Y-65275963D02*
X65668296Y-64609297D01*
X65668296Y-64704535D02*
X65715915Y-64656916D01*
X65811153Y-64609297D01*
X65954010Y-64609297D01*
X66049248Y-64656916D01*
X66096868Y-64752154D01*
X66096868Y-65275963D01*
X66096868Y-64752154D02*
X66144487Y-64656916D01*
X66239725Y-64609297D01*
X66382582Y-64609297D01*
X66477820Y-64656916D01*
X66525439Y-64752154D01*
X66525439Y-65275963D01*
X67001629Y-65180725D02*
X67049248Y-65228344D01*
X67001629Y-65275963D01*
X66954010Y-65228344D01*
X67001629Y-65180725D01*
X67001629Y-65275963D01*
X68573058Y-64752154D02*
X68715915Y-64799773D01*
X68763534Y-64847392D01*
X68811153Y-64942630D01*
X68811153Y-65085487D01*
X68763534Y-65180725D01*
X68715915Y-65228344D01*
X68620677Y-65275963D01*
X68239725Y-65275963D01*
X68239725Y-64275963D01*
X68573058Y-64275963D01*
X68668296Y-64323583D01*
X68715915Y-64371202D01*
X68763534Y-64466440D01*
X68763534Y-64561678D01*
X68715915Y-64656916D01*
X68668296Y-64704535D01*
X68573058Y-64752154D01*
X68239725Y-64752154D01*
X20590476Y-109148571D02*
X20257142Y-109148571D01*
X20257142Y-109672380D02*
X20257142Y-108672380D01*
X20733333Y-108672380D01*
X21114285Y-109672380D02*
X21114285Y-109005714D01*
X21114285Y-108672380D02*
X21066666Y-108720000D01*
X21114285Y-108767619D01*
X21161904Y-108720000D01*
X21114285Y-108672380D01*
X21114285Y-108767619D01*
X21590476Y-109672380D02*
X21590476Y-109005714D01*
X21590476Y-109196190D02*
X21638095Y-109100952D01*
X21685714Y-109053333D01*
X21780952Y-109005714D01*
X21876190Y-109005714D01*
X22590476Y-109624761D02*
X22495238Y-109672380D01*
X22304761Y-109672380D01*
X22209523Y-109624761D01*
X22161904Y-109529523D01*
X22161904Y-109148571D01*
X22209523Y-109053333D01*
X22304761Y-109005714D01*
X22495238Y-109005714D01*
X22590476Y-109053333D01*
X22638095Y-109148571D01*
X22638095Y-109243809D01*
X22161904Y-109339047D01*
X23066666Y-109005714D02*
X23066666Y-110005714D01*
X23066666Y-109053333D02*
X23161904Y-109005714D01*
X23352380Y-109005714D01*
X23447619Y-109053333D01*
X23495238Y-109100952D01*
X23542857Y-109196190D01*
X23542857Y-109481904D01*
X23495238Y-109577142D01*
X23447619Y-109624761D01*
X23352380Y-109672380D01*
X23161904Y-109672380D01*
X23066666Y-109624761D01*
X24114285Y-109672380D02*
X24019047Y-109624761D01*
X23971428Y-109529523D01*
X23971428Y-108672380D01*
X24923809Y-109672380D02*
X24923809Y-109148571D01*
X24876190Y-109053333D01*
X24780952Y-109005714D01*
X24590476Y-109005714D01*
X24495238Y-109053333D01*
X24923809Y-109624761D02*
X24828571Y-109672380D01*
X24590476Y-109672380D01*
X24495238Y-109624761D01*
X24447619Y-109529523D01*
X24447619Y-109434285D01*
X24495238Y-109339047D01*
X24590476Y-109291428D01*
X24828571Y-109291428D01*
X24923809Y-109243809D01*
X25828571Y-109624761D02*
X25733333Y-109672380D01*
X25542857Y-109672380D01*
X25447619Y-109624761D01*
X25400000Y-109577142D01*
X25352380Y-109481904D01*
X25352380Y-109196190D01*
X25400000Y-109100952D01*
X25447619Y-109053333D01*
X25542857Y-109005714D01*
X25733333Y-109005714D01*
X25828571Y-109053333D01*
X26638095Y-109624761D02*
X26542857Y-109672380D01*
X26352380Y-109672380D01*
X26257142Y-109624761D01*
X26209523Y-109529523D01*
X26209523Y-109148571D01*
X26257142Y-109053333D01*
X26352380Y-109005714D01*
X26542857Y-109005714D01*
X26638095Y-109053333D01*
X26685714Y-109148571D01*
X26685714Y-109243809D01*
X26209523Y-109339047D01*
X28161904Y-110053333D02*
X28114285Y-110005714D01*
X28019047Y-109862857D01*
X27971428Y-109767619D01*
X27923809Y-109624761D01*
X27876190Y-109386666D01*
X27876190Y-109196190D01*
X27923809Y-108958095D01*
X27971428Y-108815238D01*
X28019047Y-108720000D01*
X28114285Y-108577142D01*
X28161904Y-108529523D01*
X28447619Y-108672380D02*
X29066666Y-108672380D01*
X28733333Y-109053333D01*
X28876190Y-109053333D01*
X28971428Y-109100952D01*
X29019047Y-109148571D01*
X29066666Y-109243809D01*
X29066666Y-109481904D01*
X29019047Y-109577142D01*
X28971428Y-109624761D01*
X28876190Y-109672380D01*
X28590476Y-109672380D01*
X28495238Y-109624761D01*
X28447619Y-109577142D01*
X29352380Y-108672380D02*
X29685714Y-109672380D01*
X30019047Y-108672380D01*
X30257142Y-110053333D02*
X30304761Y-110005714D01*
X30400000Y-109862857D01*
X30447619Y-109767619D01*
X30495238Y-109624761D01*
X30542857Y-109386666D01*
X30542857Y-109196190D01*
X30495238Y-108958095D01*
X30447619Y-108815238D01*
X30400000Y-108720000D01*
X30304761Y-108577142D01*
X30257142Y-108529523D01*
X69858095Y-18232380D02*
X69858095Y-17232380D01*
X70096190Y-17232380D01*
X70239047Y-17280000D01*
X70334285Y-17375238D01*
X70381904Y-17470476D01*
X70429523Y-17660952D01*
X70429523Y-17803809D01*
X70381904Y-17994285D01*
X70334285Y-18089523D01*
X70239047Y-18184761D01*
X70096190Y-18232380D01*
X69858095Y-18232380D01*
X71429523Y-18137142D02*
X71381904Y-18184761D01*
X71239047Y-18232380D01*
X71143809Y-18232380D01*
X71000952Y-18184761D01*
X70905714Y-18089523D01*
X70858095Y-17994285D01*
X70810476Y-17803809D01*
X70810476Y-17660952D01*
X70858095Y-17470476D01*
X70905714Y-17375238D01*
X71000952Y-17280000D01*
X71143809Y-17232380D01*
X71239047Y-17232380D01*
X71381904Y-17280000D01*
X71429523Y-17327619D01*
X72429523Y-18137142D02*
X72381904Y-18184761D01*
X72239047Y-18232380D01*
X72143809Y-18232380D01*
X72000952Y-18184761D01*
X71905714Y-18089523D01*
X71858095Y-17994285D01*
X71810476Y-17803809D01*
X71810476Y-17660952D01*
X71858095Y-17470476D01*
X71905714Y-17375238D01*
X72000952Y-17280000D01*
X72143809Y-17232380D01*
X72239047Y-17232380D01*
X72381904Y-17280000D01*
X72429523Y-17327619D01*
X75819047Y-99131428D02*
X76580952Y-99131428D01*
X76200000Y-99512380D02*
X76200000Y-98750476D01*
X86288571Y-77969523D02*
X86288571Y-77636190D01*
X86812380Y-77493333D02*
X86812380Y-77969523D01*
X85812380Y-77969523D01*
X85812380Y-77493333D01*
X86812380Y-77160000D02*
X86145714Y-76636190D01*
X86145714Y-77160000D02*
X86812380Y-76636190D01*
X86145714Y-76398095D02*
X86145714Y-76017142D01*
X85812380Y-76255238D02*
X86669523Y-76255238D01*
X86764761Y-76207619D01*
X86812380Y-76112380D01*
X86812380Y-76017142D01*
X86717142Y-75683809D02*
X86764761Y-75636190D01*
X86812380Y-75683809D01*
X86764761Y-75731428D01*
X86717142Y-75683809D01*
X86812380Y-75683809D01*
X86812380Y-74445714D02*
X85812380Y-74445714D01*
X86193333Y-74445714D02*
X86145714Y-74350476D01*
X86145714Y-74160000D01*
X86193333Y-74064761D01*
X86240952Y-74017142D01*
X86336190Y-73969523D01*
X86621904Y-73969523D01*
X86717142Y-74017142D01*
X86764761Y-74064761D01*
X86812380Y-74160000D01*
X86812380Y-74350476D01*
X86764761Y-74445714D01*
X86145714Y-73112380D02*
X86812380Y-73112380D01*
X86145714Y-73540952D02*
X86669523Y-73540952D01*
X86764761Y-73493333D01*
X86812380Y-73398095D01*
X86812380Y-73255238D01*
X86764761Y-73160000D01*
X86717142Y-73112380D01*
X86145714Y-72779047D02*
X86145714Y-72398095D01*
X85812380Y-72636190D02*
X86669523Y-72636190D01*
X86764761Y-72588571D01*
X86812380Y-72493333D01*
X86812380Y-72398095D01*
X86145714Y-72207619D02*
X86145714Y-71826666D01*
X85812380Y-72064761D02*
X86669523Y-72064761D01*
X86764761Y-72017142D01*
X86812380Y-71921904D01*
X86812380Y-71826666D01*
X86812380Y-71350476D02*
X86764761Y-71445714D01*
X86717142Y-71493333D01*
X86621904Y-71540952D01*
X86336190Y-71540952D01*
X86240952Y-71493333D01*
X86193333Y-71445714D01*
X86145714Y-71350476D01*
X86145714Y-71207619D01*
X86193333Y-71112380D01*
X86240952Y-71064761D01*
X86336190Y-71017142D01*
X86621904Y-71017142D01*
X86717142Y-71064761D01*
X86764761Y-71112380D01*
X86812380Y-71207619D01*
X86812380Y-71350476D01*
X86145714Y-70588571D02*
X86812380Y-70588571D01*
X86240952Y-70588571D02*
X86193333Y-70540952D01*
X86145714Y-70445714D01*
X86145714Y-70302857D01*
X86193333Y-70207619D01*
X86288571Y-70160000D01*
X86812380Y-70160000D01*
X86764761Y-69731428D02*
X86812380Y-69636190D01*
X86812380Y-69445714D01*
X86764761Y-69350476D01*
X86669523Y-69302857D01*
X86621904Y-69302857D01*
X86526666Y-69350476D01*
X86479047Y-69445714D01*
X86479047Y-69588571D01*
X86431428Y-69683809D01*
X86336190Y-69731428D01*
X86288571Y-69731428D01*
X86193333Y-69683809D01*
X86145714Y-69588571D01*
X86145714Y-69445714D01*
X86193333Y-69350476D01*
X24535238Y-69017380D02*
X24535238Y-68017380D01*
X24773333Y-68017380D01*
X24916190Y-68065000D01*
X25011428Y-68160238D01*
X25059047Y-68255476D01*
X25106666Y-68445952D01*
X25106666Y-68588809D01*
X25059047Y-68779285D01*
X25011428Y-68874523D01*
X24916190Y-68969761D01*
X24773333Y-69017380D01*
X24535238Y-69017380D01*
X25868571Y-68493571D02*
X25535238Y-68493571D01*
X25535238Y-69017380D02*
X25535238Y-68017380D01*
X26011428Y-68017380D01*
X27154285Y-69017380D02*
X27154285Y-68017380D01*
X27535238Y-68017380D01*
X27630476Y-68065000D01*
X27678095Y-68112619D01*
X27725714Y-68207857D01*
X27725714Y-68350714D01*
X27678095Y-68445952D01*
X27630476Y-68493571D01*
X27535238Y-68541190D01*
X27154285Y-68541190D01*
X28297142Y-69017380D02*
X28201904Y-68969761D01*
X28154285Y-68874523D01*
X28154285Y-68017380D01*
X29106666Y-69017380D02*
X29106666Y-68493571D01*
X29059047Y-68398333D01*
X28963809Y-68350714D01*
X28773333Y-68350714D01*
X28678095Y-68398333D01*
X29106666Y-68969761D02*
X29011428Y-69017380D01*
X28773333Y-69017380D01*
X28678095Y-68969761D01*
X28630476Y-68874523D01*
X28630476Y-68779285D01*
X28678095Y-68684047D01*
X28773333Y-68636428D01*
X29011428Y-68636428D01*
X29106666Y-68588809D01*
X29487619Y-68350714D02*
X29725714Y-69017380D01*
X29963809Y-68350714D02*
X29725714Y-69017380D01*
X29630476Y-69255476D01*
X29582857Y-69303095D01*
X29487619Y-69350714D01*
X30725714Y-68969761D02*
X30630476Y-69017380D01*
X30440000Y-69017380D01*
X30344761Y-68969761D01*
X30297142Y-68874523D01*
X30297142Y-68493571D01*
X30344761Y-68398333D01*
X30440000Y-68350714D01*
X30630476Y-68350714D01*
X30725714Y-68398333D01*
X30773333Y-68493571D01*
X30773333Y-68588809D01*
X30297142Y-68684047D01*
X31201904Y-69017380D02*
X31201904Y-68350714D01*
X31201904Y-68541190D02*
X31249523Y-68445952D01*
X31297142Y-68398333D01*
X31392380Y-68350714D01*
X31487619Y-68350714D01*
X23130476Y-70627380D02*
X23130476Y-69627380D01*
X23463809Y-70341666D01*
X23797142Y-69627380D01*
X23797142Y-70627380D01*
X24273333Y-70627380D02*
X24273333Y-69627380D01*
X24654285Y-69627380D01*
X24749523Y-69675000D01*
X24797142Y-69722619D01*
X24844761Y-69817857D01*
X24844761Y-69960714D01*
X24797142Y-70055952D01*
X24749523Y-70103571D01*
X24654285Y-70151190D01*
X24273333Y-70151190D01*
X25178095Y-69627380D02*
X25797142Y-69627380D01*
X25463809Y-70008333D01*
X25606666Y-70008333D01*
X25701904Y-70055952D01*
X25749523Y-70103571D01*
X25797142Y-70198809D01*
X25797142Y-70436904D01*
X25749523Y-70532142D01*
X25701904Y-70579761D01*
X25606666Y-70627380D01*
X25320952Y-70627380D01*
X25225714Y-70579761D01*
X25178095Y-70532142D01*
X26225714Y-70246428D02*
X26987619Y-70246428D01*
X27320952Y-69627380D02*
X27892380Y-69627380D01*
X27606666Y-70627380D02*
X27606666Y-69627380D01*
X28559047Y-70103571D02*
X28225714Y-70103571D01*
X28225714Y-70627380D02*
X28225714Y-69627380D01*
X28701904Y-69627380D01*
X29082857Y-70246428D02*
X29844761Y-70246428D01*
X30844761Y-70627380D02*
X30273333Y-70627380D01*
X30559047Y-70627380D02*
X30559047Y-69627380D01*
X30463809Y-69770238D01*
X30368571Y-69865476D01*
X30273333Y-69913095D01*
X31701904Y-69627380D02*
X31511428Y-69627380D01*
X31416190Y-69675000D01*
X31368571Y-69722619D01*
X31273333Y-69865476D01*
X31225714Y-70055952D01*
X31225714Y-70436904D01*
X31273333Y-70532142D01*
X31320952Y-70579761D01*
X31416190Y-70627380D01*
X31606666Y-70627380D01*
X31701904Y-70579761D01*
X31749523Y-70532142D01*
X31797142Y-70436904D01*
X31797142Y-70198809D01*
X31749523Y-70103571D01*
X31701904Y-70055952D01*
X31606666Y-70008333D01*
X31416190Y-70008333D01*
X31320952Y-70055952D01*
X31273333Y-70103571D01*
X31225714Y-70198809D01*
X32225714Y-70627380D02*
X32225714Y-69627380D01*
X32606666Y-69627380D01*
X32701904Y-69675000D01*
X32749523Y-69722619D01*
X32797142Y-69817857D01*
X32797142Y-69960714D01*
X32749523Y-70055952D01*
X32701904Y-70103571D01*
X32606666Y-70151190D01*
X32225714Y-70151190D01*
X76366666Y-78978095D02*
X76366666Y-78501904D01*
X76652380Y-79073333D02*
X75652380Y-78740000D01*
X76652380Y-78406666D01*
X71040952Y-89304761D02*
X71183809Y-89352380D01*
X71421904Y-89352380D01*
X71517142Y-89304761D01*
X71564761Y-89257142D01*
X71612380Y-89161904D01*
X71612380Y-89066666D01*
X71564761Y-88971428D01*
X71517142Y-88923809D01*
X71421904Y-88876190D01*
X71231428Y-88828571D01*
X71136190Y-88780952D01*
X71088571Y-88733333D01*
X71040952Y-88638095D01*
X71040952Y-88542857D01*
X71088571Y-88447619D01*
X71136190Y-88400000D01*
X71231428Y-88352380D01*
X71469523Y-88352380D01*
X71612380Y-88400000D01*
X71898095Y-88685714D02*
X72279047Y-88685714D01*
X72040952Y-88352380D02*
X72040952Y-89209523D01*
X72088571Y-89304761D01*
X72183809Y-89352380D01*
X72279047Y-89352380D01*
X73040952Y-89352380D02*
X73040952Y-88828571D01*
X72993333Y-88733333D01*
X72898095Y-88685714D01*
X72707619Y-88685714D01*
X72612380Y-88733333D01*
X73040952Y-89304761D02*
X72945714Y-89352380D01*
X72707619Y-89352380D01*
X72612380Y-89304761D01*
X72564761Y-89209523D01*
X72564761Y-89114285D01*
X72612380Y-89019047D01*
X72707619Y-88971428D01*
X72945714Y-88971428D01*
X73040952Y-88923809D01*
X73374285Y-88685714D02*
X73755238Y-88685714D01*
X73517142Y-88352380D02*
X73517142Y-89209523D01*
X73564761Y-89304761D01*
X73660000Y-89352380D01*
X73755238Y-89352380D01*
X74469523Y-89304761D02*
X74374285Y-89352380D01*
X74183809Y-89352380D01*
X74088571Y-89304761D01*
X74040952Y-89209523D01*
X74040952Y-88828571D01*
X74088571Y-88733333D01*
X74183809Y-88685714D01*
X74374285Y-88685714D01*
X74469523Y-88733333D01*
X74517142Y-88828571D01*
X74517142Y-88923809D01*
X74040952Y-89019047D01*
X76040952Y-88828571D02*
X76183809Y-88876190D01*
X76231428Y-88923809D01*
X76279047Y-89019047D01*
X76279047Y-89161904D01*
X76231428Y-89257142D01*
X76183809Y-89304761D01*
X76088571Y-89352380D01*
X75707619Y-89352380D01*
X75707619Y-88352380D01*
X76040952Y-88352380D01*
X76136190Y-88400000D01*
X76183809Y-88447619D01*
X76231428Y-88542857D01*
X76231428Y-88638095D01*
X76183809Y-88733333D01*
X76136190Y-88780952D01*
X76040952Y-88828571D01*
X75707619Y-88828571D01*
X22479047Y-99131428D02*
X23240952Y-99131428D01*
X22860000Y-99512380D02*
X22860000Y-98750476D01*
X58642857Y-56046666D02*
X59119047Y-56046666D01*
X58547619Y-56332380D02*
X58880952Y-55332380D01*
X59214285Y-56332380D01*
X59547619Y-56332380D02*
X59547619Y-55665714D01*
X59547619Y-55856190D02*
X59595238Y-55760952D01*
X59642857Y-55713333D01*
X59738095Y-55665714D01*
X59833333Y-55665714D01*
X60595238Y-56332380D02*
X60595238Y-55332380D01*
X60595238Y-56284761D02*
X60500000Y-56332380D01*
X60309523Y-56332380D01*
X60214285Y-56284761D01*
X60166666Y-56237142D01*
X60119047Y-56141904D01*
X60119047Y-55856190D01*
X60166666Y-55760952D01*
X60214285Y-55713333D01*
X60309523Y-55665714D01*
X60500000Y-55665714D01*
X60595238Y-55713333D01*
X61500000Y-55665714D02*
X61500000Y-56332380D01*
X61071428Y-55665714D02*
X61071428Y-56189523D01*
X61119047Y-56284761D01*
X61214285Y-56332380D01*
X61357142Y-56332380D01*
X61452380Y-56284761D01*
X61500000Y-56237142D01*
X61976190Y-56332380D02*
X61976190Y-55665714D01*
X61976190Y-55332380D02*
X61928571Y-55380000D01*
X61976190Y-55427619D01*
X62023809Y-55380000D01*
X61976190Y-55332380D01*
X61976190Y-55427619D01*
X62452380Y-55665714D02*
X62452380Y-56332380D01*
X62452380Y-55760952D02*
X62500000Y-55713333D01*
X62595238Y-55665714D01*
X62738095Y-55665714D01*
X62833333Y-55713333D01*
X62880952Y-55808571D01*
X62880952Y-56332380D01*
X63500000Y-56332380D02*
X63404761Y-56284761D01*
X63357142Y-56237142D01*
X63309523Y-56141904D01*
X63309523Y-55856190D01*
X63357142Y-55760952D01*
X63404761Y-55713333D01*
X63500000Y-55665714D01*
X63642857Y-55665714D01*
X63738095Y-55713333D01*
X63785714Y-55760952D01*
X63833333Y-55856190D01*
X63833333Y-56141904D01*
X63785714Y-56237142D01*
X63738095Y-56284761D01*
X63642857Y-56332380D01*
X63500000Y-56332380D01*
X65023809Y-56332380D02*
X65023809Y-55332380D01*
X65595238Y-56332380D01*
X65595238Y-55332380D01*
X66500000Y-56332380D02*
X66500000Y-55808571D01*
X66452380Y-55713333D01*
X66357142Y-55665714D01*
X66166666Y-55665714D01*
X66071428Y-55713333D01*
X66500000Y-56284761D02*
X66404761Y-56332380D01*
X66166666Y-56332380D01*
X66071428Y-56284761D01*
X66023809Y-56189523D01*
X66023809Y-56094285D01*
X66071428Y-55999047D01*
X66166666Y-55951428D01*
X66404761Y-55951428D01*
X66500000Y-55903809D01*
X66976190Y-55665714D02*
X66976190Y-56332380D01*
X66976190Y-55760952D02*
X67023809Y-55713333D01*
X67119047Y-55665714D01*
X67261904Y-55665714D01*
X67357142Y-55713333D01*
X67404761Y-55808571D01*
X67404761Y-56332380D01*
X68023809Y-56332380D02*
X67928571Y-56284761D01*
X67880952Y-56237142D01*
X67833333Y-56141904D01*
X67833333Y-55856190D01*
X67880952Y-55760952D01*
X67928571Y-55713333D01*
X68023809Y-55665714D01*
X68166666Y-55665714D01*
X68261904Y-55713333D01*
X68309523Y-55760952D01*
X68357142Y-55856190D01*
X68357142Y-56141904D01*
X68309523Y-56237142D01*
X68261904Y-56284761D01*
X68166666Y-56332380D01*
X68023809Y-56332380D01*
X27559047Y-99131428D02*
X28320952Y-99131428D01*
X76128571Y-68508571D02*
X76176190Y-68365714D01*
X76223809Y-68318095D01*
X76319047Y-68270476D01*
X76461904Y-68270476D01*
X76557142Y-68318095D01*
X76604761Y-68365714D01*
X76652380Y-68460952D01*
X76652380Y-68841904D01*
X75652380Y-68841904D01*
X75652380Y-68508571D01*
X75700000Y-68413333D01*
X75747619Y-68365714D01*
X75842857Y-68318095D01*
X75938095Y-68318095D01*
X76033333Y-68365714D01*
X76080952Y-68413333D01*
X76128571Y-68508571D01*
X76128571Y-68841904D01*
X76557142Y-74469523D02*
X76604761Y-74517142D01*
X76652380Y-74660000D01*
X76652380Y-74755238D01*
X76604761Y-74898095D01*
X76509523Y-74993333D01*
X76414285Y-75040952D01*
X76223809Y-75088571D01*
X76080952Y-75088571D01*
X75890476Y-75040952D01*
X75795238Y-74993333D01*
X75700000Y-74898095D01*
X75652380Y-74755238D01*
X75652380Y-74660000D01*
X75700000Y-74517142D01*
X75747619Y-74469523D01*
X76652380Y-73898095D02*
X76604761Y-73993333D01*
X76557142Y-74040952D01*
X76461904Y-74088571D01*
X76176190Y-74088571D01*
X76080952Y-74040952D01*
X76033333Y-73993333D01*
X75985714Y-73898095D01*
X75985714Y-73755238D01*
X76033333Y-73660000D01*
X76080952Y-73612380D01*
X76176190Y-73564761D01*
X76461904Y-73564761D01*
X76557142Y-73612380D01*
X76604761Y-73660000D01*
X76652380Y-73755238D01*
X76652380Y-73898095D01*
X76652380Y-73136190D02*
X75985714Y-73136190D01*
X76080952Y-73136190D02*
X76033333Y-73088571D01*
X75985714Y-72993333D01*
X75985714Y-72850476D01*
X76033333Y-72755238D01*
X76128571Y-72707619D01*
X76652380Y-72707619D01*
X76128571Y-72707619D02*
X76033333Y-72660000D01*
X75985714Y-72564761D01*
X75985714Y-72421904D01*
X76033333Y-72326666D01*
X76128571Y-72279047D01*
X76652380Y-72279047D01*
X74763809Y-109148571D02*
X75097142Y-109148571D01*
X75240000Y-109672380D02*
X74763809Y-109672380D01*
X74763809Y-108672380D01*
X75240000Y-108672380D01*
X75668571Y-109005714D02*
X75668571Y-109672380D01*
X75668571Y-109100952D02*
X75716190Y-109053333D01*
X75811428Y-109005714D01*
X75954285Y-109005714D01*
X76049523Y-109053333D01*
X76097142Y-109148571D01*
X76097142Y-109672380D01*
X76478095Y-109005714D02*
X76716190Y-109672380D01*
X76954285Y-109005714D01*
X77335238Y-109672380D02*
X77335238Y-109005714D01*
X77335238Y-108672380D02*
X77287619Y-108720000D01*
X77335238Y-108767619D01*
X77382857Y-108720000D01*
X77335238Y-108672380D01*
X77335238Y-108767619D01*
X77954285Y-109672380D02*
X77859047Y-109624761D01*
X77811428Y-109529523D01*
X77811428Y-108672380D01*
X79382857Y-110053333D02*
X79335238Y-110005714D01*
X79240000Y-109862857D01*
X79192380Y-109767619D01*
X79144761Y-109624761D01*
X79097142Y-109386666D01*
X79097142Y-109196190D01*
X79144761Y-108958095D01*
X79192380Y-108815238D01*
X79240000Y-108720000D01*
X79335238Y-108577142D01*
X79382857Y-108529523D01*
X80287619Y-109672380D02*
X79716190Y-109672380D01*
X80001904Y-109672380D02*
X80001904Y-108672380D01*
X79906666Y-108815238D01*
X79811428Y-108910476D01*
X79716190Y-108958095D01*
X80668571Y-108767619D02*
X80716190Y-108720000D01*
X80811428Y-108672380D01*
X81049523Y-108672380D01*
X81144761Y-108720000D01*
X81192380Y-108767619D01*
X81240000Y-108862857D01*
X81240000Y-108958095D01*
X81192380Y-109100952D01*
X80620952Y-109672380D01*
X81240000Y-109672380D01*
X81525714Y-108672380D02*
X81859047Y-109672380D01*
X82192380Y-108672380D01*
X82430476Y-110053333D02*
X82478095Y-110005714D01*
X82573333Y-109862857D01*
X82620952Y-109767619D01*
X82668571Y-109624761D01*
X82716190Y-109386666D01*
X82716190Y-109196190D01*
X82668571Y-108958095D01*
X82620952Y-108815238D01*
X82573333Y-108720000D01*
X82478095Y-108577142D01*
X82430476Y-108529523D01*
X44072220Y-65275963D02*
X44072220Y-64275963D01*
X44405553Y-64990249D01*
X44738887Y-64275963D01*
X44738887Y-65275963D01*
X45357934Y-65275963D02*
X45262696Y-65228344D01*
X45215077Y-65180725D01*
X45167458Y-65085487D01*
X45167458Y-64799773D01*
X45215077Y-64704535D01*
X45262696Y-64656916D01*
X45357934Y-64609297D01*
X45500791Y-64609297D01*
X45596029Y-64656916D01*
X45643648Y-64704535D01*
X45691267Y-64799773D01*
X45691267Y-65085487D01*
X45643648Y-65180725D01*
X45596029Y-65228344D01*
X45500791Y-65275963D01*
X45357934Y-65275963D01*
X46548410Y-65275963D02*
X46548410Y-64275963D01*
X46548410Y-65228344D02*
X46453172Y-65275963D01*
X46262696Y-65275963D01*
X46167458Y-65228344D01*
X46119839Y-65180725D01*
X46072220Y-65085487D01*
X46072220Y-64799773D01*
X46119839Y-64704535D01*
X46167458Y-64656916D01*
X46262696Y-64609297D01*
X46453172Y-64609297D01*
X46548410Y-64656916D01*
X47405553Y-65228344D02*
X47310315Y-65275963D01*
X47119839Y-65275963D01*
X47024601Y-65228344D01*
X46976982Y-65133106D01*
X46976982Y-64752154D01*
X47024601Y-64656916D01*
X47119839Y-64609297D01*
X47310315Y-64609297D01*
X47405553Y-64656916D01*
X47453172Y-64752154D01*
X47453172Y-64847392D01*
X46976982Y-64942630D01*
X22154285Y-18232380D02*
X22154285Y-17232380D01*
X22535238Y-17232380D01*
X22630476Y-17280000D01*
X22678095Y-17327619D01*
X22725714Y-17422857D01*
X22725714Y-17565714D01*
X22678095Y-17660952D01*
X22630476Y-17708571D01*
X22535238Y-17756190D01*
X22154285Y-17756190D01*
X23297142Y-18232380D02*
X23201904Y-18184761D01*
X23154285Y-18137142D01*
X23106666Y-18041904D01*
X23106666Y-17756190D01*
X23154285Y-17660952D01*
X23201904Y-17613333D01*
X23297142Y-17565714D01*
X23440000Y-17565714D01*
X23535238Y-17613333D01*
X23582857Y-17660952D01*
X23630476Y-17756190D01*
X23630476Y-18041904D01*
X23582857Y-18137142D01*
X23535238Y-18184761D01*
X23440000Y-18232380D01*
X23297142Y-18232380D01*
X23963809Y-17565714D02*
X24154285Y-18232380D01*
X24344761Y-17756190D01*
X24535238Y-18232380D01*
X24725714Y-17565714D01*
X25487619Y-18184761D02*
X25392380Y-18232380D01*
X25201904Y-18232380D01*
X25106666Y-18184761D01*
X25059047Y-18089523D01*
X25059047Y-17708571D01*
X25106666Y-17613333D01*
X25201904Y-17565714D01*
X25392380Y-17565714D01*
X25487619Y-17613333D01*
X25535238Y-17708571D01*
X25535238Y-17803809D01*
X25059047Y-17899047D01*
X25963809Y-18232380D02*
X25963809Y-17565714D01*
X25963809Y-17756190D02*
X26011428Y-17660952D01*
X26059047Y-17613333D01*
X26154285Y-17565714D01*
X26249523Y-17565714D01*
X27630476Y-18613333D02*
X27582857Y-18565714D01*
X27487619Y-18422857D01*
X27440000Y-18327619D01*
X27392380Y-18184761D01*
X27344761Y-17946666D01*
X27344761Y-17756190D01*
X27392380Y-17518095D01*
X27440000Y-17375238D01*
X27487619Y-17280000D01*
X27582857Y-17137142D01*
X27630476Y-17089523D01*
X28535238Y-18232380D02*
X27963809Y-18232380D01*
X28249523Y-18232380D02*
X28249523Y-17232380D01*
X28154285Y-17375238D01*
X28059047Y-17470476D01*
X27963809Y-17518095D01*
X28916190Y-17327619D02*
X28963809Y-17280000D01*
X29059047Y-17232380D01*
X29297142Y-17232380D01*
X29392380Y-17280000D01*
X29440000Y-17327619D01*
X29487619Y-17422857D01*
X29487619Y-17518095D01*
X29440000Y-17660952D01*
X28868571Y-18232380D01*
X29487619Y-18232380D01*
X29773333Y-17232380D02*
X30106666Y-18232380D01*
X30440000Y-17232380D01*
X31535238Y-18232380D02*
X31535238Y-17232380D01*
X31773333Y-17232380D01*
X31916190Y-17280000D01*
X32011428Y-17375238D01*
X32059047Y-17470476D01*
X32106666Y-17660952D01*
X32106666Y-17803809D01*
X32059047Y-17994285D01*
X32011428Y-18089523D01*
X31916190Y-18184761D01*
X31773333Y-18232380D01*
X31535238Y-18232380D01*
X33106666Y-18137142D02*
X33059047Y-18184761D01*
X32916190Y-18232380D01*
X32820952Y-18232380D01*
X32678095Y-18184761D01*
X32582857Y-18089523D01*
X32535238Y-17994285D01*
X32487619Y-17803809D01*
X32487619Y-17660952D01*
X32535238Y-17470476D01*
X32582857Y-17375238D01*
X32678095Y-17280000D01*
X32820952Y-17232380D01*
X32916190Y-17232380D01*
X33059047Y-17280000D01*
X33106666Y-17327619D01*
X33440000Y-18613333D02*
X33487619Y-18565714D01*
X33582857Y-18422857D01*
X33630476Y-18327619D01*
X33678095Y-18184761D01*
X33725714Y-17946666D01*
X33725714Y-17756190D01*
X33678095Y-17518095D01*
X33630476Y-17375238D01*
X33582857Y-17280000D01*
X33487619Y-17137142D01*
X33440000Y-17089523D01*
X68199047Y-101671428D02*
X68960952Y-101671428D01*
X63492380Y-89304761D02*
X63635238Y-89352380D01*
X63873333Y-89352380D01*
X63968571Y-89304761D01*
X64016190Y-89257142D01*
X64063809Y-89161904D01*
X64063809Y-89066666D01*
X64016190Y-88971428D01*
X63968571Y-88923809D01*
X63873333Y-88876190D01*
X63682857Y-88828571D01*
X63587619Y-88780952D01*
X63540000Y-88733333D01*
X63492380Y-88638095D01*
X63492380Y-88542857D01*
X63540000Y-88447619D01*
X63587619Y-88400000D01*
X63682857Y-88352380D01*
X63920952Y-88352380D01*
X64063809Y-88400000D01*
X64349523Y-88685714D02*
X64730476Y-88685714D01*
X64492380Y-88352380D02*
X64492380Y-89209523D01*
X64540000Y-89304761D01*
X64635238Y-89352380D01*
X64730476Y-89352380D01*
X65492380Y-89352380D02*
X65492380Y-88828571D01*
X65444761Y-88733333D01*
X65349523Y-88685714D01*
X65159047Y-88685714D01*
X65063809Y-88733333D01*
X65492380Y-89304761D02*
X65397142Y-89352380D01*
X65159047Y-89352380D01*
X65063809Y-89304761D01*
X65016190Y-89209523D01*
X65016190Y-89114285D01*
X65063809Y-89019047D01*
X65159047Y-88971428D01*
X65397142Y-88971428D01*
X65492380Y-88923809D01*
X65825714Y-88685714D02*
X66206666Y-88685714D01*
X65968571Y-88352380D02*
X65968571Y-89209523D01*
X66016190Y-89304761D01*
X66111428Y-89352380D01*
X66206666Y-89352380D01*
X66920952Y-89304761D02*
X66825714Y-89352380D01*
X66635238Y-89352380D01*
X66540000Y-89304761D01*
X66492380Y-89209523D01*
X66492380Y-88828571D01*
X66540000Y-88733333D01*
X66635238Y-88685714D01*
X66825714Y-88685714D01*
X66920952Y-88733333D01*
X66968571Y-88828571D01*
X66968571Y-88923809D01*
X66492380Y-89019047D01*
X68111428Y-89066666D02*
X68587619Y-89066666D01*
X68016190Y-89352380D02*
X68349523Y-88352380D01*
X68682857Y-89352380D01*
X37418095Y-22412142D02*
X37370476Y-22459761D01*
X37227619Y-22507380D01*
X37132380Y-22507380D01*
X36989523Y-22459761D01*
X36894285Y-22364523D01*
X36846666Y-22269285D01*
X36799047Y-22078809D01*
X36799047Y-21935952D01*
X36846666Y-21745476D01*
X36894285Y-21650238D01*
X36989523Y-21555000D01*
X37132380Y-21507380D01*
X37227619Y-21507380D01*
X37370476Y-21555000D01*
X37418095Y-21602619D01*
X37703809Y-21507380D02*
X38275238Y-21507380D01*
X37989523Y-22507380D02*
X37989523Y-21507380D01*
X38608571Y-22507380D02*
X38608571Y-21507380D01*
X38941904Y-22221666D01*
X39275238Y-21507380D01*
X39275238Y-22507380D01*
X39751428Y-22126428D02*
X40513333Y-22126428D01*
X40989523Y-22507380D02*
X40989523Y-21507380D01*
X41227619Y-21507380D01*
X41370476Y-21555000D01*
X41465714Y-21650238D01*
X41513333Y-21745476D01*
X41560952Y-21935952D01*
X41560952Y-22078809D01*
X41513333Y-22269285D01*
X41465714Y-22364523D01*
X41370476Y-22459761D01*
X41227619Y-22507380D01*
X40989523Y-22507380D01*
X41941904Y-22221666D02*
X42418095Y-22221666D01*
X41846666Y-22507380D02*
X42180000Y-21507380D01*
X42513333Y-22507380D01*
X43037142Y-21507380D02*
X43132380Y-21507380D01*
X43227619Y-21555000D01*
X43275238Y-21602619D01*
X43322857Y-21697857D01*
X43370476Y-21888333D01*
X43370476Y-22126428D01*
X43322857Y-22316904D01*
X43275238Y-22412142D01*
X43227619Y-22459761D01*
X43132380Y-22507380D01*
X43037142Y-22507380D01*
X42941904Y-22459761D01*
X42894285Y-22412142D01*
X42846666Y-22316904D01*
X42799047Y-22126428D01*
X42799047Y-21888333D01*
X42846666Y-21697857D01*
X42894285Y-21602619D01*
X42941904Y-21555000D01*
X43037142Y-21507380D01*
X43751428Y-21602619D02*
X43799047Y-21555000D01*
X43894285Y-21507380D01*
X44132380Y-21507380D01*
X44227619Y-21555000D01*
X44275238Y-21602619D01*
X44322857Y-21697857D01*
X44322857Y-21793095D01*
X44275238Y-21935952D01*
X43703809Y-22507380D01*
X44322857Y-22507380D01*
X45799047Y-22888333D02*
X45751428Y-22840714D01*
X45656190Y-22697857D01*
X45608571Y-22602619D01*
X45560952Y-22459761D01*
X45513333Y-22221666D01*
X45513333Y-22031190D01*
X45560952Y-21793095D01*
X45608571Y-21650238D01*
X45656190Y-21555000D01*
X45751428Y-21412142D01*
X45799047Y-21364523D01*
X46084761Y-21840714D02*
X46322857Y-22507380D01*
X46560952Y-21840714D01*
X47465714Y-22507380D02*
X46894285Y-22507380D01*
X47180000Y-22507380D02*
X47180000Y-21507380D01*
X47084761Y-21650238D01*
X46989523Y-21745476D01*
X46894285Y-21793095D01*
X47894285Y-22412142D02*
X47941904Y-22459761D01*
X47894285Y-22507380D01*
X47846666Y-22459761D01*
X47894285Y-22412142D01*
X47894285Y-22507380D01*
X48560952Y-21507380D02*
X48656190Y-21507380D01*
X48751428Y-21555000D01*
X48799047Y-21602619D01*
X48846666Y-21697857D01*
X48894285Y-21888333D01*
X48894285Y-22126428D01*
X48846666Y-22316904D01*
X48799047Y-22412142D01*
X48751428Y-22459761D01*
X48656190Y-22507380D01*
X48560952Y-22507380D01*
X48465714Y-22459761D01*
X48418095Y-22412142D01*
X48370476Y-22316904D01*
X48322857Y-22126428D01*
X48322857Y-21888333D01*
X48370476Y-21697857D01*
X48418095Y-21602619D01*
X48465714Y-21555000D01*
X48560952Y-21507380D01*
X49227619Y-22888333D02*
X49275238Y-22840714D01*
X49370476Y-22697857D01*
X49418095Y-22602619D01*
X49465714Y-22459761D01*
X49513333Y-22221666D01*
X49513333Y-22031190D01*
X49465714Y-21793095D01*
X49418095Y-21650238D01*
X49370476Y-21555000D01*
X49275238Y-21412142D01*
X49227619Y-21364523D01*
X37680000Y-24069761D02*
X37584761Y-24117380D01*
X37394285Y-24117380D01*
X37299047Y-24069761D01*
X37251428Y-24022142D01*
X37203809Y-23926904D01*
X37203809Y-23641190D01*
X37251428Y-23545952D01*
X37299047Y-23498333D01*
X37394285Y-23450714D01*
X37584761Y-23450714D01*
X37680000Y-23498333D01*
X37965714Y-23450714D02*
X38346666Y-23450714D01*
X38108571Y-23117380D02*
X38108571Y-23974523D01*
X38156190Y-24069761D01*
X38251428Y-24117380D01*
X38346666Y-24117380D01*
X38680000Y-23736428D02*
X39441904Y-23736428D01*
X39918095Y-24117380D02*
X39918095Y-23450714D01*
X39918095Y-23545952D02*
X39965714Y-23498333D01*
X40060952Y-23450714D01*
X40203809Y-23450714D01*
X40299047Y-23498333D01*
X40346666Y-23593571D01*
X40346666Y-24117380D01*
X40346666Y-23593571D02*
X40394285Y-23498333D01*
X40489523Y-23450714D01*
X40632380Y-23450714D01*
X40727619Y-23498333D01*
X40775238Y-23593571D01*
X40775238Y-24117380D01*
X41394285Y-24117380D02*
X41299047Y-24069761D01*
X41251428Y-24022142D01*
X41203809Y-23926904D01*
X41203809Y-23641190D01*
X41251428Y-23545952D01*
X41299047Y-23498333D01*
X41394285Y-23450714D01*
X41537142Y-23450714D01*
X41632380Y-23498333D01*
X41680000Y-23545952D01*
X41727619Y-23641190D01*
X41727619Y-23926904D01*
X41680000Y-24022142D01*
X41632380Y-24069761D01*
X41537142Y-24117380D01*
X41394285Y-24117380D01*
X42584761Y-24117380D02*
X42584761Y-23117380D01*
X42584761Y-24069761D02*
X42489523Y-24117380D01*
X42299047Y-24117380D01*
X42203809Y-24069761D01*
X42156190Y-24022142D01*
X42108571Y-23926904D01*
X42108571Y-23641190D01*
X42156190Y-23545952D01*
X42203809Y-23498333D01*
X42299047Y-23450714D01*
X42489523Y-23450714D01*
X42584761Y-23498333D01*
X43441904Y-24069761D02*
X43346666Y-24117380D01*
X43156190Y-24117380D01*
X43060952Y-24069761D01*
X43013333Y-23974523D01*
X43013333Y-23593571D01*
X43060952Y-23498333D01*
X43156190Y-23450714D01*
X43346666Y-23450714D01*
X43441904Y-23498333D01*
X43489523Y-23593571D01*
X43489523Y-23688809D01*
X43013333Y-23784047D01*
X44060952Y-24117380D02*
X43965714Y-24069761D01*
X43918095Y-23974523D01*
X43918095Y-23117380D01*
X44441904Y-24117380D02*
X44441904Y-23450714D01*
X44441904Y-23117380D02*
X44394285Y-23165000D01*
X44441904Y-23212619D01*
X44489523Y-23165000D01*
X44441904Y-23117380D01*
X44441904Y-23212619D01*
X44870476Y-24069761D02*
X44965714Y-24117380D01*
X45156190Y-24117380D01*
X45251428Y-24069761D01*
X45299047Y-23974523D01*
X45299047Y-23926904D01*
X45251428Y-23831666D01*
X45156190Y-23784047D01*
X45013333Y-23784047D01*
X44918095Y-23736428D01*
X44870476Y-23641190D01*
X44870476Y-23593571D01*
X44918095Y-23498333D01*
X45013333Y-23450714D01*
X45156190Y-23450714D01*
X45251428Y-23498333D01*
X45727619Y-24117380D02*
X45727619Y-23450714D01*
X45727619Y-23545952D02*
X45775238Y-23498333D01*
X45870476Y-23450714D01*
X46013333Y-23450714D01*
X46108571Y-23498333D01*
X46156190Y-23593571D01*
X46156190Y-24117380D01*
X46156190Y-23593571D02*
X46203809Y-23498333D01*
X46299047Y-23450714D01*
X46441904Y-23450714D01*
X46537142Y-23498333D01*
X46584761Y-23593571D01*
X46584761Y-24117380D01*
X47441904Y-24069761D02*
X47346666Y-24117380D01*
X47156190Y-24117380D01*
X47060952Y-24069761D01*
X47013333Y-23974523D01*
X47013333Y-23593571D01*
X47060952Y-23498333D01*
X47156190Y-23450714D01*
X47346666Y-23450714D01*
X47441904Y-23498333D01*
X47489523Y-23593571D01*
X47489523Y-23688809D01*
X47013333Y-23784047D01*
X47918095Y-24022142D02*
X47965714Y-24069761D01*
X47918095Y-24117380D01*
X47870476Y-24069761D01*
X47918095Y-24022142D01*
X47918095Y-24117380D01*
X48251428Y-23450714D02*
X48632380Y-23450714D01*
X48394285Y-24117380D02*
X48394285Y-23260238D01*
X48441904Y-23165000D01*
X48537142Y-23117380D01*
X48632380Y-23117380D01*
X48965714Y-24117380D02*
X48965714Y-23450714D01*
X48965714Y-23641190D02*
X49013333Y-23545952D01*
X49060952Y-23498333D01*
X49156190Y-23450714D01*
X49251428Y-23450714D01*
X53243506Y-64990249D02*
X53719697Y-64990249D01*
X53148268Y-65275963D02*
X53481602Y-64275963D01*
X53814935Y-65275963D01*
X54148268Y-64609297D02*
X54148268Y-65275963D01*
X54148268Y-64704535D02*
X54195887Y-64656916D01*
X54291125Y-64609297D01*
X54433983Y-64609297D01*
X54529221Y-64656916D01*
X54576840Y-64752154D01*
X54576840Y-65275963D01*
X55053030Y-65275963D02*
X55053030Y-64609297D01*
X55053030Y-64275963D02*
X55005411Y-64323583D01*
X55053030Y-64371202D01*
X55100649Y-64323583D01*
X55053030Y-64275963D01*
X55053030Y-64371202D01*
X55529221Y-65275963D02*
X55529221Y-64609297D01*
X55529221Y-64704535D02*
X55576840Y-64656916D01*
X55672078Y-64609297D01*
X55814935Y-64609297D01*
X55910173Y-64656916D01*
X55957792Y-64752154D01*
X55957792Y-65275963D01*
X55957792Y-64752154D02*
X56005411Y-64656916D01*
X56100649Y-64609297D01*
X56243506Y-64609297D01*
X56338744Y-64656916D01*
X56386364Y-64752154D01*
X56386364Y-65275963D01*
X56862554Y-65180725D02*
X56910173Y-65228344D01*
X56862554Y-65275963D01*
X56814935Y-65228344D01*
X56862554Y-65180725D01*
X56862554Y-65275963D01*
X58053030Y-64990249D02*
X58529221Y-64990249D01*
X57957792Y-65275963D02*
X58291125Y-64275963D01*
X58624459Y-65275963D01*
X18184761Y-88677142D02*
X18232380Y-88534285D01*
X18232380Y-88296190D01*
X18184761Y-88200952D01*
X18137142Y-88153333D01*
X18041904Y-88105714D01*
X17946666Y-88105714D01*
X17851428Y-88153333D01*
X17803809Y-88200952D01*
X17756190Y-88296190D01*
X17708571Y-88486666D01*
X17660952Y-88581904D01*
X17613333Y-88629523D01*
X17518095Y-88677142D01*
X17422857Y-88677142D01*
X17327619Y-88629523D01*
X17280000Y-88581904D01*
X17232380Y-88486666D01*
X17232380Y-88248571D01*
X17280000Y-88105714D01*
X17565714Y-87677142D02*
X18565714Y-87677142D01*
X17613333Y-87677142D02*
X17565714Y-87581904D01*
X17565714Y-87391428D01*
X17613333Y-87296190D01*
X17660952Y-87248571D01*
X17756190Y-87200952D01*
X18041904Y-87200952D01*
X18137142Y-87248571D01*
X18184761Y-87296190D01*
X18232380Y-87391428D01*
X18232380Y-87581904D01*
X18184761Y-87677142D01*
X18184761Y-86391428D02*
X18232380Y-86486666D01*
X18232380Y-86677142D01*
X18184761Y-86772380D01*
X18089523Y-86820000D01*
X17708571Y-86820000D01*
X17613333Y-86772380D01*
X17565714Y-86677142D01*
X17565714Y-86486666D01*
X17613333Y-86391428D01*
X17708571Y-86343809D01*
X17803809Y-86343809D01*
X17899047Y-86820000D01*
X18232380Y-85486666D02*
X17708571Y-85486666D01*
X17613333Y-85534285D01*
X17565714Y-85629523D01*
X17565714Y-85820000D01*
X17613333Y-85915238D01*
X18184761Y-85486666D02*
X18232380Y-85581904D01*
X18232380Y-85820000D01*
X18184761Y-85915238D01*
X18089523Y-85962857D01*
X17994285Y-85962857D01*
X17899047Y-85915238D01*
X17851428Y-85820000D01*
X17851428Y-85581904D01*
X17803809Y-85486666D01*
X18232380Y-85010476D02*
X17232380Y-85010476D01*
X17851428Y-84915238D02*
X18232380Y-84629523D01*
X17565714Y-84629523D02*
X17946666Y-85010476D01*
X18184761Y-83820000D02*
X18232380Y-83915238D01*
X18232380Y-84105714D01*
X18184761Y-84200952D01*
X18089523Y-84248571D01*
X17708571Y-84248571D01*
X17613333Y-84200952D01*
X17565714Y-84105714D01*
X17565714Y-83915238D01*
X17613333Y-83820000D01*
X17708571Y-83772380D01*
X17803809Y-83772380D01*
X17899047Y-84248571D01*
X18232380Y-83343809D02*
X17565714Y-83343809D01*
X17756190Y-83343809D02*
X17660952Y-83296190D01*
X17613333Y-83248571D01*
X17565714Y-83153333D01*
X17565714Y-83058095D01*
X18613333Y-81677142D02*
X18565714Y-81724761D01*
X18422857Y-81820000D01*
X18327619Y-81867619D01*
X18184761Y-81915238D01*
X17946666Y-81962857D01*
X17756190Y-81962857D01*
X17518095Y-81915238D01*
X17375238Y-81867619D01*
X17280000Y-81820000D01*
X17137142Y-81724761D01*
X17089523Y-81677142D01*
X17232380Y-81391428D02*
X17232380Y-80772380D01*
X17613333Y-81105714D01*
X17613333Y-80962857D01*
X17660952Y-80867619D01*
X17708571Y-80820000D01*
X17803809Y-80772380D01*
X18041904Y-80772380D01*
X18137142Y-80820000D01*
X18184761Y-80867619D01*
X18232380Y-80962857D01*
X18232380Y-81248571D01*
X18184761Y-81343809D01*
X18137142Y-81391428D01*
X17232380Y-80439047D02*
X18232380Y-80200952D01*
X17518095Y-80010476D01*
X18232380Y-79820000D01*
X17232380Y-79581904D01*
X18613333Y-79296190D02*
X18565714Y-79248571D01*
X18422857Y-79153333D01*
X18327619Y-79105714D01*
X18184761Y-79058095D01*
X17946666Y-79010476D01*
X17756190Y-79010476D01*
X17518095Y-79058095D01*
X17375238Y-79105714D01*
X17280000Y-79153333D01*
X17137142Y-79248571D01*
X17089523Y-79296190D01*
%TO.C,R10*%
X60317142Y-94432380D02*
X59983809Y-93956190D01*
X59745714Y-94432380D02*
X59745714Y-93432380D01*
X60126666Y-93432380D01*
X60221904Y-93480000D01*
X60269523Y-93527619D01*
X60317142Y-93622857D01*
X60317142Y-93765714D01*
X60269523Y-93860952D01*
X60221904Y-93908571D01*
X60126666Y-93956190D01*
X59745714Y-93956190D01*
X61269523Y-94432380D02*
X60698095Y-94432380D01*
X60983809Y-94432380D02*
X60983809Y-93432380D01*
X60888571Y-93575238D01*
X60793333Y-93670476D01*
X60698095Y-93718095D01*
X61888571Y-93432380D02*
X61983809Y-93432380D01*
X62079047Y-93480000D01*
X62126666Y-93527619D01*
X62174285Y-93622857D01*
X62221904Y-93813333D01*
X62221904Y-94051428D01*
X62174285Y-94241904D01*
X62126666Y-94337142D01*
X62079047Y-94384761D01*
X61983809Y-94432380D01*
X61888571Y-94432380D01*
X61793333Y-94384761D01*
X61745714Y-94337142D01*
X61698095Y-94241904D01*
X61650476Y-94051428D01*
X61650476Y-93813333D01*
X61698095Y-93622857D01*
X61745714Y-93527619D01*
X61793333Y-93480000D01*
X61888571Y-93432380D01*
%TO.C,D4*%
X33472380Y-36298095D02*
X32472380Y-36298095D01*
X32472380Y-36060000D01*
X32520000Y-35917142D01*
X32615238Y-35821904D01*
X32710476Y-35774285D01*
X32900952Y-35726666D01*
X33043809Y-35726666D01*
X33234285Y-35774285D01*
X33329523Y-35821904D01*
X33424761Y-35917142D01*
X33472380Y-36060000D01*
X33472380Y-36298095D01*
X32805714Y-34869523D02*
X33472380Y-34869523D01*
X32424761Y-35107619D02*
X33139047Y-35345714D01*
X33139047Y-34726666D01*
X35572380Y-30741904D02*
X34572380Y-30741904D01*
X35572380Y-30170476D02*
X35000952Y-30599047D01*
X34572380Y-30170476D02*
X35143809Y-30741904D01*
%TO.C,Q2*%
X55784761Y-103922160D02*
X55689523Y-103874541D01*
X55594285Y-103779302D01*
X55451428Y-103636445D01*
X55356190Y-103588826D01*
X55260952Y-103588826D01*
X55308571Y-103826921D02*
X55213333Y-103779302D01*
X55118095Y-103684064D01*
X55070476Y-103493588D01*
X55070476Y-103160255D01*
X55118095Y-102969779D01*
X55213333Y-102874541D01*
X55308571Y-102826921D01*
X55499047Y-102826921D01*
X55594285Y-102874541D01*
X55689523Y-102969779D01*
X55737142Y-103160255D01*
X55737142Y-103493588D01*
X55689523Y-103684064D01*
X55594285Y-103779302D01*
X55499047Y-103826921D01*
X55308571Y-103826921D01*
X56118095Y-102922160D02*
X56165714Y-102874541D01*
X56260952Y-102826921D01*
X56499047Y-102826921D01*
X56594285Y-102874541D01*
X56641904Y-102922160D01*
X56689523Y-103017398D01*
X56689523Y-103112636D01*
X56641904Y-103255493D01*
X56070476Y-103826921D01*
X56689523Y-103826921D01*
%TO.C,U2*%
X52578095Y-35012380D02*
X52578095Y-35821904D01*
X52625714Y-35917142D01*
X52673333Y-35964761D01*
X52768571Y-36012380D01*
X52959047Y-36012380D01*
X53054285Y-35964761D01*
X53101904Y-35917142D01*
X53149523Y-35821904D01*
X53149523Y-35012380D01*
X53578095Y-35107619D02*
X53625714Y-35060000D01*
X53720952Y-35012380D01*
X53959047Y-35012380D01*
X54054285Y-35060000D01*
X54101904Y-35107619D01*
X54149523Y-35202857D01*
X54149523Y-35298095D01*
X54101904Y-35440952D01*
X53530476Y-36012380D01*
X54149523Y-36012380D01*
%TO.C,R4*%
X43632380Y-83986666D02*
X43156190Y-84320000D01*
X43632380Y-84558095D02*
X42632380Y-84558095D01*
X42632380Y-84177142D01*
X42680000Y-84081904D01*
X42727619Y-84034285D01*
X42822857Y-83986666D01*
X42965714Y-83986666D01*
X43060952Y-84034285D01*
X43108571Y-84081904D01*
X43156190Y-84177142D01*
X43156190Y-84558095D01*
X42965714Y-83129523D02*
X43632380Y-83129523D01*
X42584761Y-83367619D02*
X43299047Y-83605714D01*
X43299047Y-82986666D01*
%TO.C,A1*%
X62785714Y-50966666D02*
X63261904Y-50966666D01*
X62690476Y-51252380D02*
X63023809Y-50252380D01*
X63357142Y-51252380D01*
X64214285Y-51252380D02*
X63642857Y-51252380D01*
X63928571Y-51252380D02*
X63928571Y-50252380D01*
X63833333Y-50395238D01*
X63738095Y-50490476D01*
X63642857Y-50538095D01*
%TO.C,D2*%
X28392380Y-36298095D02*
X27392380Y-36298095D01*
X27392380Y-36060000D01*
X27440000Y-35917142D01*
X27535238Y-35821904D01*
X27630476Y-35774285D01*
X27820952Y-35726666D01*
X27963809Y-35726666D01*
X28154285Y-35774285D01*
X28249523Y-35821904D01*
X28344761Y-35917142D01*
X28392380Y-36060000D01*
X28392380Y-36298095D01*
X27487619Y-35345714D02*
X27440000Y-35298095D01*
X27392380Y-35202857D01*
X27392380Y-34964761D01*
X27440000Y-34869523D01*
X27487619Y-34821904D01*
X27582857Y-34774285D01*
X27678095Y-34774285D01*
X27820952Y-34821904D01*
X28392380Y-35393333D01*
X28392380Y-34774285D01*
X26292380Y-40901904D02*
X25292380Y-40901904D01*
X26292380Y-40330476D02*
X25720952Y-40759047D01*
X25292380Y-40330476D02*
X25863809Y-40901904D01*
%TO.C,C1*%
X25233333Y-46077142D02*
X25185714Y-46124761D01*
X25042857Y-46172380D01*
X24947619Y-46172380D01*
X24804761Y-46124761D01*
X24709523Y-46029523D01*
X24661904Y-45934285D01*
X24614285Y-45743809D01*
X24614285Y-45600952D01*
X24661904Y-45410476D01*
X24709523Y-45315238D01*
X24804761Y-45220000D01*
X24947619Y-45172380D01*
X25042857Y-45172380D01*
X25185714Y-45220000D01*
X25233333Y-45267619D01*
X26185714Y-46172380D02*
X25614285Y-46172380D01*
X25900000Y-46172380D02*
X25900000Y-45172380D01*
X25804761Y-45315238D01*
X25709523Y-45410476D01*
X25614285Y-45458095D01*
%TO.C,SW2*%
X56284761Y-72453333D02*
X56332380Y-72310476D01*
X56332380Y-72072380D01*
X56284761Y-71977142D01*
X56237142Y-71929523D01*
X56141904Y-71881904D01*
X56046666Y-71881904D01*
X55951428Y-71929523D01*
X55903809Y-71977142D01*
X55856190Y-72072380D01*
X55808571Y-72262857D01*
X55760952Y-72358095D01*
X55713333Y-72405714D01*
X55618095Y-72453333D01*
X55522857Y-72453333D01*
X55427619Y-72405714D01*
X55380000Y-72358095D01*
X55332380Y-72262857D01*
X55332380Y-72024761D01*
X55380000Y-71881904D01*
X55332380Y-71548571D02*
X56332380Y-71310476D01*
X55618095Y-71120000D01*
X56332380Y-70929523D01*
X55332380Y-70691428D01*
X55427619Y-70358095D02*
X55380000Y-70310476D01*
X55332380Y-70215238D01*
X55332380Y-69977142D01*
X55380000Y-69881904D01*
X55427619Y-69834285D01*
X55522857Y-69786666D01*
X55618095Y-69786666D01*
X55760952Y-69834285D01*
X56332380Y-70405714D01*
X56332380Y-69786666D01*
%TO.C,R8*%
X25233333Y-94432380D02*
X24900000Y-93956190D01*
X24661904Y-94432380D02*
X24661904Y-93432380D01*
X25042857Y-93432380D01*
X25138095Y-93480000D01*
X25185714Y-93527619D01*
X25233333Y-93622857D01*
X25233333Y-93765714D01*
X25185714Y-93860952D01*
X25138095Y-93908571D01*
X25042857Y-93956190D01*
X24661904Y-93956190D01*
X25804761Y-93860952D02*
X25709523Y-93813333D01*
X25661904Y-93765714D01*
X25614285Y-93670476D01*
X25614285Y-93622857D01*
X25661904Y-93527619D01*
X25709523Y-93480000D01*
X25804761Y-93432380D01*
X25995238Y-93432380D01*
X26090476Y-93480000D01*
X26138095Y-93527619D01*
X26185714Y-93622857D01*
X26185714Y-93670476D01*
X26138095Y-93765714D01*
X26090476Y-93813333D01*
X25995238Y-93860952D01*
X25804761Y-93860952D01*
X25709523Y-93908571D01*
X25661904Y-93956190D01*
X25614285Y-94051428D01*
X25614285Y-94241904D01*
X25661904Y-94337142D01*
X25709523Y-94384761D01*
X25804761Y-94432380D01*
X25995238Y-94432380D01*
X26090476Y-94384761D01*
X26138095Y-94337142D01*
X26185714Y-94241904D01*
X26185714Y-94051428D01*
X26138095Y-93956190D01*
X26090476Y-93908571D01*
X25995238Y-93860952D01*
%TO.C,R6*%
X53792380Y-83986666D02*
X53316190Y-84320000D01*
X53792380Y-84558095D02*
X52792380Y-84558095D01*
X52792380Y-84177142D01*
X52840000Y-84081904D01*
X52887619Y-84034285D01*
X52982857Y-83986666D01*
X53125714Y-83986666D01*
X53220952Y-84034285D01*
X53268571Y-84081904D01*
X53316190Y-84177142D01*
X53316190Y-84558095D01*
X52792380Y-83129523D02*
X52792380Y-83320000D01*
X52840000Y-83415238D01*
X52887619Y-83462857D01*
X53030476Y-83558095D01*
X53220952Y-83605714D01*
X53601904Y-83605714D01*
X53697142Y-83558095D01*
X53744761Y-83510476D01*
X53792380Y-83415238D01*
X53792380Y-83224761D01*
X53744761Y-83129523D01*
X53697142Y-83081904D01*
X53601904Y-83034285D01*
X53363809Y-83034285D01*
X53268571Y-83081904D01*
X53220952Y-83129523D01*
X53173333Y-83224761D01*
X53173333Y-83415238D01*
X53220952Y-83510476D01*
X53268571Y-83558095D01*
X53363809Y-83605714D01*
%TO.C,U1*%
X17232380Y-36321904D02*
X18041904Y-36321904D01*
X18137142Y-36274285D01*
X18184761Y-36226666D01*
X18232380Y-36131428D01*
X18232380Y-35940952D01*
X18184761Y-35845714D01*
X18137142Y-35798095D01*
X18041904Y-35750476D01*
X17232380Y-35750476D01*
X18232380Y-34750476D02*
X18232380Y-35321904D01*
X18232380Y-35036190D02*
X17232380Y-35036190D01*
X17375238Y-35131428D01*
X17470476Y-35226666D01*
X17518095Y-35321904D01*
%TO.C,R7*%
X58872380Y-83986666D02*
X58396190Y-84320000D01*
X58872380Y-84558095D02*
X57872380Y-84558095D01*
X57872380Y-84177142D01*
X57920000Y-84081904D01*
X57967619Y-84034285D01*
X58062857Y-83986666D01*
X58205714Y-83986666D01*
X58300952Y-84034285D01*
X58348571Y-84081904D01*
X58396190Y-84177142D01*
X58396190Y-84558095D01*
X57872380Y-83653333D02*
X57872380Y-82986666D01*
X58872380Y-83415238D01*
%TO.C,C2*%
X34851760Y-48971965D02*
X34804141Y-49019584D01*
X34661284Y-49067203D01*
X34566046Y-49067203D01*
X34423188Y-49019584D01*
X34327950Y-48924346D01*
X34280331Y-48829108D01*
X34232712Y-48638632D01*
X34232712Y-48495775D01*
X34280331Y-48305299D01*
X34327950Y-48210061D01*
X34423188Y-48114823D01*
X34566046Y-48067203D01*
X34661284Y-48067203D01*
X34804141Y-48114823D01*
X34851760Y-48162442D01*
X35232712Y-48162442D02*
X35280331Y-48114823D01*
X35375569Y-48067203D01*
X35613665Y-48067203D01*
X35708903Y-48114823D01*
X35756522Y-48162442D01*
X35804141Y-48257680D01*
X35804141Y-48352918D01*
X35756522Y-48495775D01*
X35185093Y-49067203D01*
X35804141Y-49067203D01*
%TO.C,R5*%
X48712380Y-83986666D02*
X48236190Y-84320000D01*
X48712380Y-84558095D02*
X47712380Y-84558095D01*
X47712380Y-84177142D01*
X47760000Y-84081904D01*
X47807619Y-84034285D01*
X47902857Y-83986666D01*
X48045714Y-83986666D01*
X48140952Y-84034285D01*
X48188571Y-84081904D01*
X48236190Y-84177142D01*
X48236190Y-84558095D01*
X47712380Y-83081904D02*
X47712380Y-83558095D01*
X48188571Y-83605714D01*
X48140952Y-83558095D01*
X48093333Y-83462857D01*
X48093333Y-83224761D01*
X48140952Y-83129523D01*
X48188571Y-83081904D01*
X48283809Y-83034285D01*
X48521904Y-83034285D01*
X48617142Y-83081904D01*
X48664761Y-83129523D01*
X48712380Y-83224761D01*
X48712380Y-83462857D01*
X48664761Y-83558095D01*
X48617142Y-83605714D01*
%TO.C,J10*%
X24852380Y-84629523D02*
X25566666Y-84629523D01*
X25709523Y-84677142D01*
X25804761Y-84772380D01*
X25852380Y-84915238D01*
X25852380Y-85010476D01*
X25852380Y-83629523D02*
X25852380Y-84200952D01*
X25852380Y-83915238D02*
X24852380Y-83915238D01*
X24995238Y-84010476D01*
X25090476Y-84105714D01*
X25138095Y-84200952D01*
X24852380Y-83010476D02*
X24852380Y-82915238D01*
X24900000Y-82820000D01*
X24947619Y-82772380D01*
X25042857Y-82724761D01*
X25233333Y-82677142D01*
X25471428Y-82677142D01*
X25661904Y-82724761D01*
X25757142Y-82772380D01*
X25804761Y-82820000D01*
X25852380Y-82915238D01*
X25852380Y-83010476D01*
X25804761Y-83105714D01*
X25757142Y-83153333D01*
X25661904Y-83200952D01*
X25471428Y-83248571D01*
X25233333Y-83248571D01*
X25042857Y-83200952D01*
X24947619Y-83153333D01*
X24900000Y-83105714D01*
X24852380Y-83010476D01*
%TO.C,U3*%
X27178095Y-62952380D02*
X27178095Y-63761904D01*
X27225714Y-63857142D01*
X27273333Y-63904761D01*
X27368571Y-63952380D01*
X27559047Y-63952380D01*
X27654285Y-63904761D01*
X27701904Y-63857142D01*
X27749523Y-63761904D01*
X27749523Y-62952380D01*
X28130476Y-62952380D02*
X28749523Y-62952380D01*
X28416190Y-63333333D01*
X28559047Y-63333333D01*
X28654285Y-63380952D01*
X28701904Y-63428571D01*
X28749523Y-63523809D01*
X28749523Y-63761904D01*
X28701904Y-63857142D01*
X28654285Y-63904761D01*
X28559047Y-63952380D01*
X28273333Y-63952380D01*
X28178095Y-63904761D01*
X28130476Y-63857142D01*
%TO.C,SW3*%
X66444761Y-72453333D02*
X66492380Y-72310476D01*
X66492380Y-72072380D01*
X66444761Y-71977142D01*
X66397142Y-71929523D01*
X66301904Y-71881904D01*
X66206666Y-71881904D01*
X66111428Y-71929523D01*
X66063809Y-71977142D01*
X66016190Y-72072380D01*
X65968571Y-72262857D01*
X65920952Y-72358095D01*
X65873333Y-72405714D01*
X65778095Y-72453333D01*
X65682857Y-72453333D01*
X65587619Y-72405714D01*
X65540000Y-72358095D01*
X65492380Y-72262857D01*
X65492380Y-72024761D01*
X65540000Y-71881904D01*
X65492380Y-71548571D02*
X66492380Y-71310476D01*
X65778095Y-71120000D01*
X66492380Y-70929523D01*
X65492380Y-70691428D01*
X65492380Y-70405714D02*
X65492380Y-69786666D01*
X65873333Y-70120000D01*
X65873333Y-69977142D01*
X65920952Y-69881904D01*
X65968571Y-69834285D01*
X66063809Y-69786666D01*
X66301904Y-69786666D01*
X66397142Y-69834285D01*
X66444761Y-69881904D01*
X66492380Y-69977142D01*
X66492380Y-70262857D01*
X66444761Y-70358095D01*
X66397142Y-70405714D01*
%TO.C,J7*%
X25066666Y-101052380D02*
X25066666Y-101766666D01*
X25019047Y-101909523D01*
X24923809Y-102004761D01*
X24780952Y-102052380D01*
X24685714Y-102052380D01*
X25447619Y-101052380D02*
X26114285Y-101052380D01*
X25685714Y-102052380D01*
%TO.C,R9*%
X43013333Y-94432380D02*
X42680000Y-93956190D01*
X42441904Y-94432380D02*
X42441904Y-93432380D01*
X42822857Y-93432380D01*
X42918095Y-93480000D01*
X42965714Y-93527619D01*
X43013333Y-93622857D01*
X43013333Y-93765714D01*
X42965714Y-93860952D01*
X42918095Y-93908571D01*
X42822857Y-93956190D01*
X42441904Y-93956190D01*
X43489523Y-94432380D02*
X43680000Y-94432380D01*
X43775238Y-94384761D01*
X43822857Y-94337142D01*
X43918095Y-94194285D01*
X43965714Y-94003809D01*
X43965714Y-93622857D01*
X43918095Y-93527619D01*
X43870476Y-93480000D01*
X43775238Y-93432380D01*
X43584761Y-93432380D01*
X43489523Y-93480000D01*
X43441904Y-93527619D01*
X43394285Y-93622857D01*
X43394285Y-93860952D01*
X43441904Y-93956190D01*
X43489523Y-94003809D01*
X43584761Y-94051428D01*
X43775238Y-94051428D01*
X43870476Y-94003809D01*
X43918095Y-93956190D01*
X43965714Y-93860952D01*
%TO.C,SW1*%
X46124761Y-72453333D02*
X46172380Y-72310476D01*
X46172380Y-72072380D01*
X46124761Y-71977142D01*
X46077142Y-71929523D01*
X45981904Y-71881904D01*
X45886666Y-71881904D01*
X45791428Y-71929523D01*
X45743809Y-71977142D01*
X45696190Y-72072380D01*
X45648571Y-72262857D01*
X45600952Y-72358095D01*
X45553333Y-72405714D01*
X45458095Y-72453333D01*
X45362857Y-72453333D01*
X45267619Y-72405714D01*
X45220000Y-72358095D01*
X45172380Y-72262857D01*
X45172380Y-72024761D01*
X45220000Y-71881904D01*
X45172380Y-71548571D02*
X46172380Y-71310476D01*
X45458095Y-71120000D01*
X46172380Y-70929523D01*
X45172380Y-70691428D01*
X46172380Y-69786666D02*
X46172380Y-70358095D01*
X46172380Y-70072380D02*
X45172380Y-70072380D01*
X45315238Y-70167619D01*
X45410476Y-70262857D01*
X45458095Y-70358095D01*
%TO.C,Q1*%
X48164761Y-103922160D02*
X48069523Y-103874541D01*
X47974285Y-103779302D01*
X47831428Y-103636445D01*
X47736190Y-103588826D01*
X47640952Y-103588826D01*
X47688571Y-103826921D02*
X47593333Y-103779302D01*
X47498095Y-103684064D01*
X47450476Y-103493588D01*
X47450476Y-103160255D01*
X47498095Y-102969779D01*
X47593333Y-102874541D01*
X47688571Y-102826921D01*
X47879047Y-102826921D01*
X47974285Y-102874541D01*
X48069523Y-102969779D01*
X48117142Y-103160255D01*
X48117142Y-103493588D01*
X48069523Y-103684064D01*
X47974285Y-103779302D01*
X47879047Y-103826921D01*
X47688571Y-103826921D01*
X49069523Y-103826921D02*
X48498095Y-103826921D01*
X48783809Y-103826921D02*
X48783809Y-102826921D01*
X48688571Y-102969779D01*
X48593333Y-103065017D01*
X48498095Y-103112636D01*
%TO.C,D5*%
X63952380Y-36298095D02*
X62952380Y-36298095D01*
X62952380Y-36060000D01*
X63000000Y-35917142D01*
X63095238Y-35821904D01*
X63190476Y-35774285D01*
X63380952Y-35726666D01*
X63523809Y-35726666D01*
X63714285Y-35774285D01*
X63809523Y-35821904D01*
X63904761Y-35917142D01*
X63952380Y-36060000D01*
X63952380Y-36298095D01*
X62952380Y-34821904D02*
X62952380Y-35298095D01*
X63428571Y-35345714D01*
X63380952Y-35298095D01*
X63333333Y-35202857D01*
X63333333Y-34964761D01*
X63380952Y-34869523D01*
X63428571Y-34821904D01*
X63523809Y-34774285D01*
X63761904Y-34774285D01*
X63857142Y-34821904D01*
X63904761Y-34869523D01*
X63952380Y-34964761D01*
X63952380Y-35202857D01*
X63904761Y-35298095D01*
X63857142Y-35345714D01*
X62152380Y-39631904D02*
X61152380Y-39631904D01*
X62152380Y-39060476D02*
X61580952Y-39489047D01*
X61152380Y-39060476D02*
X61723809Y-39631904D01*
%TO.C,R12*%
X36012380Y-84462857D02*
X35536190Y-84796190D01*
X36012380Y-85034285D02*
X35012380Y-85034285D01*
X35012380Y-84653333D01*
X35060000Y-84558095D01*
X35107619Y-84510476D01*
X35202857Y-84462857D01*
X35345714Y-84462857D01*
X35440952Y-84510476D01*
X35488571Y-84558095D01*
X35536190Y-84653333D01*
X35536190Y-85034285D01*
X36012380Y-83510476D02*
X36012380Y-84081904D01*
X36012380Y-83796190D02*
X35012380Y-83796190D01*
X35155238Y-83891428D01*
X35250476Y-83986666D01*
X35298095Y-84081904D01*
X35107619Y-83129523D02*
X35060000Y-83081904D01*
X35012380Y-82986666D01*
X35012380Y-82748571D01*
X35060000Y-82653333D01*
X35107619Y-82605714D01*
X35202857Y-82558095D01*
X35298095Y-82558095D01*
X35440952Y-82605714D01*
X36012380Y-83177142D01*
X36012380Y-82558095D01*
%TO.C,D1*%
X43632380Y-36298095D02*
X42632380Y-36298095D01*
X42632380Y-36060000D01*
X42680000Y-35917142D01*
X42775238Y-35821904D01*
X42870476Y-35774285D01*
X43060952Y-35726666D01*
X43203809Y-35726666D01*
X43394285Y-35774285D01*
X43489523Y-35821904D01*
X43584761Y-35917142D01*
X43632380Y-36060000D01*
X43632380Y-36298095D01*
X43632380Y-34774285D02*
X43632380Y-35345714D01*
X43632380Y-35060000D02*
X42632380Y-35060000D01*
X42775238Y-35155238D01*
X42870476Y-35250476D01*
X42918095Y-35345714D01*
X41532380Y-40901904D02*
X40532380Y-40901904D01*
X41532380Y-40330476D02*
X40960952Y-40759047D01*
X40532380Y-40330476D02*
X41103809Y-40901904D01*
%TO.C,J9*%
X78406666Y-101052380D02*
X78406666Y-101766666D01*
X78359047Y-101909523D01*
X78263809Y-102004761D01*
X78120952Y-102052380D01*
X78025714Y-102052380D01*
X78930476Y-102052380D02*
X79120952Y-102052380D01*
X79216190Y-102004761D01*
X79263809Y-101957142D01*
X79359047Y-101814285D01*
X79406666Y-101623809D01*
X79406666Y-101242857D01*
X79359047Y-101147619D01*
X79311428Y-101100000D01*
X79216190Y-101052380D01*
X79025714Y-101052380D01*
X78930476Y-101100000D01*
X78882857Y-101147619D01*
X78835238Y-101242857D01*
X78835238Y-101480952D01*
X78882857Y-101576190D01*
X78930476Y-101623809D01*
X79025714Y-101671428D01*
X79216190Y-101671428D01*
X79311428Y-101623809D01*
X79359047Y-101576190D01*
X79406666Y-101480952D01*
%TO.C,R1*%
X69032380Y-35726666D02*
X68556190Y-36060000D01*
X69032380Y-36298095D02*
X68032380Y-36298095D01*
X68032380Y-35917142D01*
X68080000Y-35821904D01*
X68127619Y-35774285D01*
X68222857Y-35726666D01*
X68365714Y-35726666D01*
X68460952Y-35774285D01*
X68508571Y-35821904D01*
X68556190Y-35917142D01*
X68556190Y-36298095D01*
X69032380Y-34774285D02*
X69032380Y-35345714D01*
X69032380Y-35060000D02*
X68032380Y-35060000D01*
X68175238Y-35155238D01*
X68270476Y-35250476D01*
X68318095Y-35345714D01*
%TO.C,R2*%
X74112380Y-35726666D02*
X73636190Y-36060000D01*
X74112380Y-36298095D02*
X73112380Y-36298095D01*
X73112380Y-35917142D01*
X73160000Y-35821904D01*
X73207619Y-35774285D01*
X73302857Y-35726666D01*
X73445714Y-35726666D01*
X73540952Y-35774285D01*
X73588571Y-35821904D01*
X73636190Y-35917142D01*
X73636190Y-36298095D01*
X73207619Y-35345714D02*
X73160000Y-35298095D01*
X73112380Y-35202857D01*
X73112380Y-34964761D01*
X73160000Y-34869523D01*
X73207619Y-34821904D01*
X73302857Y-34774285D01*
X73398095Y-34774285D01*
X73540952Y-34821904D01*
X74112380Y-35393333D01*
X74112380Y-34774285D01*
%TO.C,D3*%
X38552380Y-36298095D02*
X37552380Y-36298095D01*
X37552380Y-36060000D01*
X37600000Y-35917142D01*
X37695238Y-35821904D01*
X37790476Y-35774285D01*
X37980952Y-35726666D01*
X38123809Y-35726666D01*
X38314285Y-35774285D01*
X38409523Y-35821904D01*
X38504761Y-35917142D01*
X38552380Y-36060000D01*
X38552380Y-36298095D01*
X37552380Y-35393333D02*
X37552380Y-34774285D01*
X37933333Y-35107619D01*
X37933333Y-34964761D01*
X37980952Y-34869523D01*
X38028571Y-34821904D01*
X38123809Y-34774285D01*
X38361904Y-34774285D01*
X38457142Y-34821904D01*
X38504761Y-34869523D01*
X38552380Y-34964761D01*
X38552380Y-35250476D01*
X38504761Y-35345714D01*
X38457142Y-35393333D01*
X40652380Y-30741904D02*
X39652380Y-30741904D01*
X40652380Y-30170476D02*
X40080952Y-30599047D01*
X39652380Y-30170476D02*
X40223809Y-30741904D01*
%TO.C,R11*%
X78097142Y-94432380D02*
X77763809Y-93956190D01*
X77525714Y-94432380D02*
X77525714Y-93432380D01*
X77906666Y-93432380D01*
X78001904Y-93480000D01*
X78049523Y-93527619D01*
X78097142Y-93622857D01*
X78097142Y-93765714D01*
X78049523Y-93860952D01*
X78001904Y-93908571D01*
X77906666Y-93956190D01*
X77525714Y-93956190D01*
X79049523Y-94432380D02*
X78478095Y-94432380D01*
X78763809Y-94432380D02*
X78763809Y-93432380D01*
X78668571Y-93575238D01*
X78573333Y-93670476D01*
X78478095Y-93718095D01*
X80001904Y-94432380D02*
X79430476Y-94432380D01*
X79716190Y-94432380D02*
X79716190Y-93432380D01*
X79620952Y-93575238D01*
X79525714Y-93670476D01*
X79430476Y-93718095D01*
%TO.C,J1*%
X27606666Y-24852380D02*
X27606666Y-25566666D01*
X27559047Y-25709523D01*
X27463809Y-25804761D01*
X27320952Y-25852380D01*
X27225714Y-25852380D01*
X28606666Y-25852380D02*
X28035238Y-25852380D01*
X28320952Y-25852380D02*
X28320952Y-24852380D01*
X28225714Y-24995238D01*
X28130476Y-25090476D01*
X28035238Y-25138095D01*
%TO.C,J3*%
X78192380Y-73993333D02*
X78906666Y-73993333D01*
X79049523Y-74040952D01*
X79144761Y-74136190D01*
X79192380Y-74279047D01*
X79192380Y-74374285D01*
X78192380Y-73612380D02*
X78192380Y-72993333D01*
X78573333Y-73326666D01*
X78573333Y-73183809D01*
X78620952Y-73088571D01*
X78668571Y-73040952D01*
X78763809Y-72993333D01*
X79001904Y-72993333D01*
X79097142Y-73040952D01*
X79144761Y-73088571D01*
X79192380Y-73183809D01*
X79192380Y-73469523D01*
X79144761Y-73564761D01*
X79097142Y-73612380D01*
%TO.C,J2*%
X70786666Y-24852380D02*
X70786666Y-25566666D01*
X70739047Y-25709523D01*
X70643809Y-25804761D01*
X70500952Y-25852380D01*
X70405714Y-25852380D01*
X71215238Y-24947619D02*
X71262857Y-24900000D01*
X71358095Y-24852380D01*
X71596190Y-24852380D01*
X71691428Y-24900000D01*
X71739047Y-24947619D01*
X71786666Y-25042857D01*
X71786666Y-25138095D01*
X71739047Y-25280952D01*
X71167619Y-25852380D01*
X71786666Y-25852380D01*
%TO.C,R3*%
X79192380Y-35726666D02*
X78716190Y-36060000D01*
X79192380Y-36298095D02*
X78192380Y-36298095D01*
X78192380Y-35917142D01*
X78240000Y-35821904D01*
X78287619Y-35774285D01*
X78382857Y-35726666D01*
X78525714Y-35726666D01*
X78620952Y-35774285D01*
X78668571Y-35821904D01*
X78716190Y-35917142D01*
X78716190Y-36298095D01*
X78192380Y-35393333D02*
X78192380Y-34774285D01*
X78573333Y-35107619D01*
X78573333Y-34964761D01*
X78620952Y-34869523D01*
X78668571Y-34821904D01*
X78763809Y-34774285D01*
X79001904Y-34774285D01*
X79097142Y-34821904D01*
X79144761Y-34869523D01*
X79192380Y-34964761D01*
X79192380Y-35250476D01*
X79144761Y-35345714D01*
X79097142Y-35393333D01*
D10*
%TO.C,R10*%
X64230000Y-92610000D02*
X57690000Y-92610000D01*
X57690000Y-92610000D02*
X57690000Y-95350000D01*
X64230000Y-95350000D02*
X64230000Y-92610000D01*
X65000000Y-93980000D02*
X64230000Y-93980000D01*
X57690000Y-95350000D02*
X64230000Y-95350000D01*
X56920000Y-93980000D02*
X57690000Y-93980000D01*
%TO.C,D4*%
X33020000Y-31820000D02*
X33020000Y-32840000D01*
X34490000Y-33740000D02*
X31550000Y-33740000D01*
X31550000Y-38280000D02*
X34490000Y-38280000D01*
X31550000Y-32840000D02*
X31550000Y-38280000D01*
X34490000Y-38280000D02*
X34490000Y-32840000D01*
X34490000Y-32840000D02*
X31550000Y-32840000D01*
X34490000Y-33860000D02*
X31550000Y-33860000D01*
X33020000Y-39300000D02*
X33020000Y-38280000D01*
X34490000Y-33620000D02*
X31550000Y-33620000D01*
%TO.C,Q2*%
X57680000Y-99750000D02*
X54080000Y-99750000D01*
X54041522Y-99761522D02*
G75*
G03*
X55880000Y-104200000I1838478J-1838478D01*
G01*
X55880000Y-104200001D02*
G75*
G03*
X57718478Y-99761522I0J2600001D01*
G01*
%TO.C,U2*%
X50700000Y-30430000D02*
X50700000Y-40710000D01*
X56000000Y-40710000D02*
X56000000Y-30430000D01*
X56000000Y-30430000D02*
X54350000Y-30430000D01*
X50700000Y-40710000D02*
X56000000Y-40710000D01*
X52350000Y-30430000D02*
X50700000Y-30430000D01*
X52350000Y-30430000D02*
G75*
G03*
X54350000Y-30430000I1000000J0D01*
G01*
%TO.C,J6*%
X36830000Y-105470000D02*
X39430000Y-105470000D01*
X35560000Y-105470000D02*
X34230000Y-105470000D01*
X36830000Y-102810000D02*
X39430000Y-102810000D01*
X36830000Y-105470000D02*
X36830000Y-102810000D01*
X39430000Y-105470000D02*
X39430000Y-102810000D01*
X34230000Y-105470000D02*
X34230000Y-104140000D01*
%TO.C,J4*%
X74990000Y-74930000D02*
X72330000Y-74930000D01*
X74990000Y-76200000D02*
X74990000Y-77530000D01*
X74990000Y-69790000D02*
X72330000Y-69790000D01*
X72330000Y-74930000D02*
X72330000Y-69790000D01*
X74990000Y-77530000D02*
X73660000Y-77530000D01*
X74990000Y-74930000D02*
X74990000Y-69790000D01*
%TO.C,R4*%
X44550000Y-80550000D02*
X41810000Y-80550000D01*
X43180000Y-87860000D02*
X43180000Y-87090000D01*
X41810000Y-87090000D02*
X44550000Y-87090000D01*
X41810000Y-80550000D02*
X41810000Y-87090000D01*
X43180000Y-79780000D02*
X43180000Y-80550000D01*
X44550000Y-87090000D02*
X44550000Y-80550000D01*
%TO.C,J8*%
X67310000Y-102810000D02*
X69910000Y-102810000D01*
X64710000Y-105470000D02*
X64710000Y-104140000D01*
X67310000Y-105470000D02*
X67310000Y-102810000D01*
X66040000Y-105470000D02*
X64710000Y-105470000D01*
X69910000Y-105470000D02*
X69910000Y-102810000D01*
X67310000Y-105470000D02*
X69910000Y-105470000D01*
%TO.C,A1*%
X83820000Y-59680000D02*
X83820000Y-62350000D01*
X45720000Y-46980000D02*
X45720000Y-44310000D01*
X45720000Y-59680000D02*
X45720000Y-62350000D01*
X86490000Y-62350000D02*
X86490000Y-44310000D01*
X48260000Y-59680000D02*
X48260000Y-62350000D01*
X83820000Y-46980000D02*
X83820000Y-44310000D01*
X43050000Y-62350000D02*
X45720000Y-62350000D01*
X48260000Y-62350000D02*
X86490000Y-62350000D01*
X48260000Y-59680000D02*
X45720000Y-59680000D01*
X86490000Y-44310000D02*
X43050000Y-44310000D01*
X45720000Y-46980000D02*
X83820000Y-46980000D01*
X48260000Y-59680000D02*
X83820000Y-59680000D01*
X43050000Y-44310000D02*
X43050000Y-62350000D01*
%TO.C,D2*%
X26470000Y-32840000D02*
X26470000Y-38280000D01*
X26470000Y-38280000D02*
X29410000Y-38280000D01*
X26470000Y-37500000D02*
X29410000Y-37500000D01*
X27940000Y-39300000D02*
X27940000Y-38280000D01*
X26470000Y-37260000D02*
X29410000Y-37260000D01*
X27940000Y-31820000D02*
X27940000Y-32840000D01*
X29410000Y-32840000D02*
X26470000Y-32840000D01*
X26470000Y-37380000D02*
X29410000Y-37380000D01*
X29410000Y-38280000D02*
X29410000Y-32840000D01*
%TO.C,C1*%
X24602000Y-53021000D02*
X21118000Y-53021000D01*
X25370000Y-52661000D02*
X20350000Y-52661000D01*
X23459000Y-53301000D02*
X22261000Y-53301000D01*
X26817000Y-51421000D02*
X24101000Y-51421000D01*
X26380000Y-51901000D02*
X24101000Y-51901000D01*
X27231000Y-50821000D02*
X24101000Y-50821000D01*
X24804000Y-52941000D02*
X20916000Y-52941000D01*
X21619000Y-49541000D02*
X17953000Y-49541000D01*
X25225000Y-52741000D02*
X20495000Y-52741000D01*
X24090000Y-53181000D02*
X21630000Y-53181000D01*
X21619000Y-51101000D02*
X18666000Y-51101000D01*
X21619000Y-51701000D02*
X19144000Y-51701000D01*
X21619000Y-51061000D02*
X18639000Y-51061000D01*
X21619000Y-51021000D02*
X18613000Y-51021000D01*
X27643000Y-49941000D02*
X24101000Y-49941000D01*
X27864000Y-49101000D02*
X17856000Y-49101000D01*
X27925000Y-48620000D02*
X17795000Y-48620000D01*
X21619000Y-50981000D02*
X18587000Y-50981000D01*
X21619000Y-49941000D02*
X18077000Y-49941000D01*
X27343000Y-50621000D02*
X24101000Y-50621000D01*
X27935000Y-48460000D02*
X17785000Y-48460000D01*
X27910000Y-48780000D02*
X17810000Y-48780000D01*
X27567000Y-50141000D02*
X24101000Y-50141000D01*
X26880000Y-51341000D02*
X24101000Y-51341000D01*
X24238000Y-53141000D02*
X21482000Y-53141000D01*
X26940000Y-51261000D02*
X24101000Y-51261000D01*
X26613000Y-51661000D02*
X24101000Y-51661000D01*
X27922000Y-48660000D02*
X17798000Y-48660000D01*
X21619000Y-49741000D02*
X18010000Y-49741000D01*
X24490000Y-53061000D02*
X21230000Y-53061000D01*
X27364000Y-50581000D02*
X24101000Y-50581000D01*
X27657000Y-49901000D02*
X24101000Y-49901000D01*
X25630000Y-52501000D02*
X20090000Y-52501000D01*
X27026000Y-51141000D02*
X24101000Y-51141000D01*
X21619000Y-50581000D02*
X18356000Y-50581000D01*
X21619000Y-50381000D02*
X18257000Y-50381000D01*
X21619000Y-51861000D02*
X19299000Y-51861000D01*
X27517000Y-50261000D02*
X24101000Y-50261000D01*
X21619000Y-51541000D02*
X19002000Y-51541000D01*
X25690000Y-52461000D02*
X20030000Y-52461000D01*
X27158000Y-50941000D02*
X24101000Y-50941000D01*
X26296000Y-51981000D02*
X19424000Y-51981000D01*
X27207000Y-50861000D02*
X24101000Y-50861000D01*
X21619000Y-51901000D02*
X19340000Y-51901000D01*
X26235000Y-43240354D02*
X25235000Y-43240354D01*
X25505000Y-52581000D02*
X20215000Y-52581000D01*
X23722000Y-53261000D02*
X21998000Y-53261000D01*
X27054000Y-51101000D02*
X24101000Y-51101000D01*
X21619000Y-51461000D02*
X18935000Y-51461000D01*
X26539000Y-51741000D02*
X24101000Y-51741000D01*
X21619000Y-51141000D02*
X18694000Y-51141000D01*
X26461000Y-51821000D02*
X24101000Y-51821000D01*
X27081000Y-51061000D02*
X24101000Y-51061000D01*
X21619000Y-51941000D02*
X19382000Y-51941000D01*
X26161000Y-52101000D02*
X19559000Y-52101000D01*
X25439000Y-52621000D02*
X20281000Y-52621000D01*
X27816000Y-49341000D02*
X17904000Y-49341000D01*
X21619000Y-51661000D02*
X19107000Y-51661000D01*
X27550000Y-50181000D02*
X24101000Y-50181000D01*
X21619000Y-49821000D02*
X18036000Y-49821000D01*
X27734000Y-49661000D02*
X24101000Y-49661000D01*
X25966000Y-52261000D02*
X19754000Y-52261000D01*
X27798000Y-49421000D02*
X17922000Y-49421000D01*
X26114000Y-52141000D02*
X19606000Y-52141000D01*
X26970000Y-51221000D02*
X24101000Y-51221000D01*
X24985000Y-52861000D02*
X20735000Y-52861000D01*
X27322000Y-50661000D02*
X24101000Y-50661000D01*
X21619000Y-50421000D02*
X18276000Y-50421000D01*
X27583000Y-50101000D02*
X24101000Y-50101000D01*
X27671000Y-49861000D02*
X24101000Y-49861000D01*
X27628000Y-49981000D02*
X24101000Y-49981000D01*
X27778000Y-49501000D02*
X24101000Y-49501000D01*
X27424000Y-50461000D02*
X24101000Y-50461000D01*
X27255000Y-50781000D02*
X24101000Y-50781000D01*
X21619000Y-50621000D02*
X18377000Y-50621000D01*
X21619000Y-49581000D02*
X17963000Y-49581000D01*
X21619000Y-51181000D02*
X18722000Y-51181000D01*
X21619000Y-50861000D02*
X18513000Y-50861000D01*
X26252000Y-52021000D02*
X19468000Y-52021000D01*
X27300000Y-50701000D02*
X24101000Y-50701000D01*
X21619000Y-49621000D02*
X17975000Y-49621000D01*
X21619000Y-51621000D02*
X19071000Y-51621000D01*
X25805000Y-52381000D02*
X19915000Y-52381000D01*
X24897000Y-52901000D02*
X20823000Y-52901000D01*
X27850000Y-49181000D02*
X17870000Y-49181000D01*
X27722000Y-49701000D02*
X24101000Y-49701000D01*
X21619000Y-51301000D02*
X18810000Y-51301000D01*
X21619000Y-50741000D02*
X18443000Y-50741000D01*
X25569000Y-52541000D02*
X20151000Y-52541000D01*
X26684000Y-51581000D02*
X24101000Y-51581000D01*
X21619000Y-50141000D02*
X18153000Y-50141000D01*
X21619000Y-50021000D02*
X18106000Y-50021000D01*
X26849000Y-51381000D02*
X24101000Y-51381000D01*
X26500000Y-51781000D02*
X24101000Y-51781000D01*
X27939000Y-48340000D02*
X17781000Y-48340000D01*
X25914000Y-52301000D02*
X19806000Y-52301000D01*
X21619000Y-50181000D02*
X18170000Y-50181000D01*
X27107000Y-51021000D02*
X24101000Y-51021000D01*
X21619000Y-51261000D02*
X18780000Y-51261000D01*
X21619000Y-49861000D02*
X18049000Y-49861000D01*
X27757000Y-49581000D02*
X24101000Y-49581000D01*
X25749000Y-52421000D02*
X19971000Y-52421000D01*
X21619000Y-50941000D02*
X18562000Y-50941000D01*
X25149000Y-52781000D02*
X20571000Y-52781000D01*
X21619000Y-50781000D02*
X18465000Y-50781000D01*
X27697000Y-49781000D02*
X24101000Y-49781000D01*
X27933000Y-48500000D02*
X17787000Y-48500000D01*
X27133000Y-50981000D02*
X24101000Y-50981000D01*
X27940000Y-48220000D02*
X17780000Y-48220000D01*
X27900000Y-48860000D02*
X17820000Y-48860000D01*
X27940000Y-48260000D02*
X17780000Y-48260000D01*
X21619000Y-49661000D02*
X17986000Y-49661000D01*
X26066000Y-52181000D02*
X19654000Y-52181000D01*
X21619000Y-49781000D02*
X18023000Y-49781000D01*
X26016000Y-52221000D02*
X19704000Y-52221000D01*
X27614000Y-50021000D02*
X24101000Y-50021000D01*
X27938000Y-48380000D02*
X17782000Y-48380000D01*
X21619000Y-51381000D02*
X18871000Y-51381000D01*
X27534000Y-50221000D02*
X24101000Y-50221000D01*
X27905000Y-48820000D02*
X17815000Y-48820000D01*
X21619000Y-50061000D02*
X18122000Y-50061000D01*
X26576000Y-51701000D02*
X24101000Y-51701000D01*
X27277000Y-50741000D02*
X24101000Y-50741000D01*
X27857000Y-49141000D02*
X17863000Y-49141000D01*
X27895000Y-48900000D02*
X17825000Y-48900000D01*
X27842000Y-49221000D02*
X17878000Y-49221000D01*
X26649000Y-51621000D02*
X24101000Y-51621000D01*
X21619000Y-51341000D02*
X18840000Y-51341000D01*
X21619000Y-49901000D02*
X18063000Y-49901000D01*
X21619000Y-50301000D02*
X18221000Y-50301000D01*
X25860000Y-52341000D02*
X19860000Y-52341000D01*
X26338000Y-51941000D02*
X24101000Y-51941000D01*
X21619000Y-49981000D02*
X18092000Y-49981000D01*
X27807000Y-49381000D02*
X17913000Y-49381000D01*
X24370000Y-53101000D02*
X21350000Y-53101000D01*
X26752000Y-51501000D02*
X24101000Y-51501000D01*
X21619000Y-51421000D02*
X18903000Y-51421000D01*
X21619000Y-50461000D02*
X18296000Y-50461000D01*
X27878000Y-49021000D02*
X17842000Y-49021000D01*
X25299000Y-52701000D02*
X20421000Y-52701000D01*
X27788000Y-49461000D02*
X17932000Y-49461000D01*
X27937000Y-48420000D02*
X17783000Y-48420000D01*
X21619000Y-51501000D02*
X18968000Y-51501000D01*
X27405000Y-50501000D02*
X24101000Y-50501000D01*
X27825000Y-49301000D02*
X17895000Y-49301000D01*
X21619000Y-50341000D02*
X18239000Y-50341000D01*
X27940000Y-48300000D02*
X17780000Y-48300000D01*
X27598000Y-50061000D02*
X24101000Y-50061000D01*
X27834000Y-49261000D02*
X17886000Y-49261000D01*
X21619000Y-50901000D02*
X18537000Y-50901000D01*
X27499000Y-50301000D02*
X24101000Y-50301000D01*
X27871000Y-49061000D02*
X17849000Y-49061000D01*
X21619000Y-50101000D02*
X18137000Y-50101000D01*
X23922000Y-53221000D02*
X21798000Y-53221000D01*
X27767000Y-49541000D02*
X24101000Y-49541000D01*
X27444000Y-50421000D02*
X24101000Y-50421000D01*
X27463000Y-50381000D02*
X24101000Y-50381000D01*
X21619000Y-50501000D02*
X18315000Y-50501000D01*
X25069000Y-52821000D02*
X20651000Y-52821000D01*
X21619000Y-50821000D02*
X18489000Y-50821000D01*
X24706000Y-52981000D02*
X21014000Y-52981000D01*
X26998000Y-51181000D02*
X24101000Y-51181000D01*
X27385000Y-50541000D02*
X24101000Y-50541000D01*
X21619000Y-50541000D02*
X18335000Y-50541000D01*
X26910000Y-51301000D02*
X24101000Y-51301000D01*
X25735000Y-42740354D02*
X25735000Y-43740354D01*
X21619000Y-51221000D02*
X18750000Y-51221000D01*
X21619000Y-51581000D02*
X19036000Y-51581000D01*
X21619000Y-50261000D02*
X18203000Y-50261000D01*
X27918000Y-48700000D02*
X17802000Y-48700000D01*
X27745000Y-49621000D02*
X24101000Y-49621000D01*
X21619000Y-50701000D02*
X18420000Y-50701000D01*
X26421000Y-51861000D02*
X24101000Y-51861000D01*
X27684000Y-49821000D02*
X24101000Y-49821000D01*
X21619000Y-50221000D02*
X18186000Y-50221000D01*
X21619000Y-49701000D02*
X17998000Y-49701000D01*
X27481000Y-50341000D02*
X24101000Y-50341000D01*
X26718000Y-51541000D02*
X24101000Y-51541000D01*
X21619000Y-49501000D02*
X17942000Y-49501000D01*
X27890000Y-48941000D02*
X17830000Y-48941000D01*
X27928000Y-48580000D02*
X17792000Y-48580000D01*
X27183000Y-50901000D02*
X24101000Y-50901000D01*
X21619000Y-50661000D02*
X18398000Y-50661000D01*
X21619000Y-51741000D02*
X19181000Y-51741000D01*
X27884000Y-48981000D02*
X17836000Y-48981000D01*
X27930000Y-48540000D02*
X17790000Y-48540000D01*
X21619000Y-51821000D02*
X19259000Y-51821000D01*
X21619000Y-51781000D02*
X19220000Y-51781000D01*
X26207000Y-52061000D02*
X19513000Y-52061000D01*
X27914000Y-48740000D02*
X17806000Y-48740000D01*
X27710000Y-49741000D02*
X24101000Y-49741000D01*
X26785000Y-51461000D02*
X24101000Y-51461000D01*
X27980000Y-48220000D02*
G75*
G03*
X27980000Y-48220000I-5120000J0D01*
G01*
%TO.C,SW2*%
X59130000Y-73370000D02*
X59130000Y-68870000D01*
X52630000Y-68870000D02*
X52630000Y-73370000D01*
X55130000Y-74620000D02*
X56630000Y-74620000D01*
X56630000Y-67620000D02*
X55130000Y-67620000D01*
%TO.C,R8*%
X21360000Y-93980000D02*
X22130000Y-93980000D01*
X22130000Y-95350000D02*
X28670000Y-95350000D01*
X22130000Y-92610000D02*
X22130000Y-95350000D01*
X28670000Y-95350000D02*
X28670000Y-92610000D01*
X28670000Y-92610000D02*
X22130000Y-92610000D01*
X29440000Y-93980000D02*
X28670000Y-93980000D01*
%TO.C,R6*%
X53340000Y-87860000D02*
X53340000Y-87090000D01*
X53340000Y-79780000D02*
X53340000Y-80550000D01*
X51970000Y-87090000D02*
X54710000Y-87090000D01*
X54710000Y-87090000D02*
X54710000Y-80550000D01*
X51970000Y-80550000D02*
X51970000Y-87090000D01*
X54710000Y-80550000D02*
X51970000Y-80550000D01*
%TO.C,U1*%
X17050000Y-37410000D02*
X18560000Y-37410000D01*
X17050000Y-40680000D02*
X17050000Y-30440000D01*
X17050000Y-30440000D02*
X21691000Y-30440000D01*
X18560000Y-40680000D02*
X18560000Y-30440000D01*
X17050000Y-33709000D02*
X18560000Y-33709000D01*
X21691000Y-40680000D02*
X21691000Y-30440000D01*
X17050000Y-40680000D02*
X21691000Y-40680000D01*
%TO.C,R7*%
X59790000Y-80550000D02*
X57050000Y-80550000D01*
X59790000Y-87090000D02*
X59790000Y-80550000D01*
X58420000Y-79780000D02*
X58420000Y-80550000D01*
X57050000Y-80550000D02*
X57050000Y-87090000D01*
X58420000Y-87860000D02*
X58420000Y-87090000D01*
X57050000Y-87090000D02*
X59790000Y-87090000D01*
%TO.C,J11*%
X29150000Y-85090000D02*
X31810000Y-85090000D01*
X31810000Y-85090000D02*
X31810000Y-87690000D01*
X29150000Y-83820000D02*
X29150000Y-82490000D01*
X29150000Y-82490000D02*
X30480000Y-82490000D01*
X29150000Y-85090000D02*
X29150000Y-87690000D01*
X29150000Y-87690000D02*
X31810000Y-87690000D01*
%TO.C,C2*%
X31980000Y-50431000D02*
X29922000Y-50431000D01*
X31980000Y-49750000D02*
X29798000Y-49750000D01*
X36118000Y-50431000D02*
X34060000Y-50431000D01*
X31980000Y-51071000D02*
X30186000Y-51071000D01*
X36094000Y-50511000D02*
X34060000Y-50511000D01*
X36248000Y-49630000D02*
X29792000Y-49630000D01*
X36038000Y-50671000D02*
X34060000Y-50671000D01*
X31980000Y-51391000D02*
X30384000Y-51391000D01*
X35656000Y-51391000D02*
X34060000Y-51391000D01*
X36130000Y-50391000D02*
X34060000Y-50391000D01*
X35936000Y-50911000D02*
X34060000Y-50911000D01*
X36170000Y-50231000D02*
X34060000Y-50231000D01*
X34529000Y-52391000D02*
X31511000Y-52391000D01*
X34734000Y-52271000D02*
X31306000Y-52271000D01*
X35990000Y-50791000D02*
X34060000Y-50791000D01*
X31980000Y-50150000D02*
X29853000Y-50150000D01*
X35810000Y-51151000D02*
X34060000Y-51151000D01*
X35015000Y-52071000D02*
X31025000Y-52071000D01*
X34452000Y-52431000D02*
X31588000Y-52431000D01*
X34910000Y-52151000D02*
X31130000Y-52151000D01*
X31980000Y-51631000D02*
X30570000Y-51631000D01*
X36006000Y-50751000D02*
X34060000Y-50751000D01*
X36067000Y-50591000D02*
X34060000Y-50591000D01*
X34601000Y-52351000D02*
X31439000Y-52351000D01*
X35325000Y-51791000D02*
X34060000Y-51791000D01*
X31980000Y-51351000D02*
X30356000Y-51351000D01*
X31980000Y-49950000D02*
X29819000Y-49950000D01*
X34185000Y-52551000D02*
X31855000Y-52551000D01*
X31980000Y-50311000D02*
X29889000Y-50311000D01*
X35972000Y-50831000D02*
X34060000Y-50831000D01*
X35736000Y-51271000D02*
X34060000Y-51271000D01*
X34796000Y-52231000D02*
X31244000Y-52231000D01*
X31980000Y-50791000D02*
X30050000Y-50791000D01*
X34370000Y-52471000D02*
X31670000Y-52471000D01*
X36202000Y-50070000D02*
X34060000Y-50070000D01*
X34670000Y-52311000D02*
X31370000Y-52311000D01*
X35710000Y-51311000D02*
X34060000Y-51311000D01*
X35174000Y-46324759D02*
X34544000Y-46324759D01*
X36235000Y-49830000D02*
X34060000Y-49830000D01*
X35832000Y-51111000D02*
X34060000Y-51111000D01*
X31980000Y-50231000D02*
X29870000Y-50231000D01*
X36151000Y-50311000D02*
X34060000Y-50311000D01*
X31980000Y-50030000D02*
X29831000Y-50030000D01*
X31980000Y-51471000D02*
X30442000Y-51471000D01*
X31980000Y-50551000D02*
X29959000Y-50551000D01*
X36187000Y-50150000D02*
X34060000Y-50150000D01*
X35436000Y-51671000D02*
X34060000Y-51671000D01*
X36209000Y-50030000D02*
X34060000Y-50030000D01*
X31980000Y-51031000D02*
X30164000Y-51031000D01*
X31980000Y-50631000D02*
X29987000Y-50631000D01*
X31980000Y-50070000D02*
X29838000Y-50070000D01*
X35400000Y-51711000D02*
X34060000Y-51711000D01*
X35112000Y-51991000D02*
X30928000Y-51991000D01*
X36250000Y-49550000D02*
X29790000Y-49550000D01*
X36231000Y-49870000D02*
X34060000Y-49870000D01*
X35598000Y-51471000D02*
X34060000Y-51471000D01*
X31980000Y-50671000D02*
X30002000Y-50671000D01*
X35470000Y-51631000D02*
X34060000Y-51631000D01*
X31980000Y-50871000D02*
X30086000Y-50871000D01*
X31980000Y-51431000D02*
X30413000Y-51431000D01*
X31980000Y-50511000D02*
X29946000Y-50511000D01*
X36195000Y-50110000D02*
X34060000Y-50110000D01*
X31980000Y-50391000D02*
X29910000Y-50391000D01*
X34079000Y-52591000D02*
X31961000Y-52591000D01*
X35954000Y-50871000D02*
X34060000Y-50871000D01*
X31980000Y-50190000D02*
X29861000Y-50190000D01*
X35684000Y-51351000D02*
X34060000Y-51351000D01*
X35504000Y-51591000D02*
X34060000Y-51591000D01*
X34854000Y-52191000D02*
X31186000Y-52191000D01*
X31980000Y-51231000D02*
X30278000Y-51231000D01*
X35244000Y-51871000D02*
X30796000Y-51871000D01*
X35786000Y-51191000D02*
X34060000Y-51191000D01*
X31980000Y-50751000D02*
X30034000Y-50751000D01*
X35536000Y-51551000D02*
X34060000Y-51551000D01*
X31980000Y-50351000D02*
X29899000Y-50351000D01*
X36215000Y-49990000D02*
X34060000Y-49990000D01*
X31980000Y-50951000D02*
X30124000Y-50951000D01*
X36179000Y-50190000D02*
X34060000Y-50190000D01*
X33422000Y-52751000D02*
X32618000Y-52751000D01*
X31980000Y-51111000D02*
X30208000Y-51111000D01*
X35916000Y-50951000D02*
X34060000Y-50951000D01*
X34859000Y-46009759D02*
X34859000Y-46639759D01*
X36226000Y-49910000D02*
X34060000Y-49910000D01*
X35854000Y-51071000D02*
X34060000Y-51071000D01*
X31980000Y-51191000D02*
X30254000Y-51191000D01*
X35762000Y-51231000D02*
X34060000Y-51231000D01*
X31980000Y-51791000D02*
X30715000Y-51791000D01*
X36247000Y-49670000D02*
X29793000Y-49670000D01*
X31980000Y-50110000D02*
X29845000Y-50110000D01*
X36022000Y-50711000D02*
X34060000Y-50711000D01*
X33653000Y-52711000D02*
X32387000Y-52711000D01*
X31980000Y-50911000D02*
X30104000Y-50911000D01*
X31980000Y-49790000D02*
X29802000Y-49790000D01*
X36221000Y-49950000D02*
X34060000Y-49950000D01*
X31980000Y-50271000D02*
X29879000Y-50271000D01*
X34282000Y-52511000D02*
X31758000Y-52511000D01*
X36053000Y-50631000D02*
X34060000Y-50631000D01*
X36141000Y-50351000D02*
X34060000Y-50351000D01*
X31980000Y-49910000D02*
X29814000Y-49910000D01*
X31980000Y-49990000D02*
X29825000Y-49990000D01*
X35363000Y-51751000D02*
X34060000Y-51751000D01*
X36242000Y-49750000D02*
X34060000Y-49750000D01*
X36250000Y-49510000D02*
X29790000Y-49510000D01*
X35896000Y-50991000D02*
X34060000Y-50991000D01*
X31980000Y-51511000D02*
X30472000Y-51511000D01*
X33960000Y-52631000D02*
X32080000Y-52631000D01*
X36106000Y-50471000D02*
X34060000Y-50471000D01*
X36161000Y-50271000D02*
X34060000Y-50271000D01*
X36081000Y-50551000D02*
X34060000Y-50551000D01*
X31980000Y-51671000D02*
X30604000Y-51671000D01*
X31980000Y-50991000D02*
X30144000Y-50991000D01*
X31980000Y-51751000D02*
X30677000Y-51751000D01*
X35157000Y-51951000D02*
X30883000Y-51951000D01*
X35202000Y-51911000D02*
X30838000Y-51911000D01*
X35064000Y-52031000D02*
X30976000Y-52031000D01*
X31980000Y-50831000D02*
X30068000Y-50831000D01*
X31980000Y-51551000D02*
X30504000Y-51551000D01*
X31980000Y-50471000D02*
X29934000Y-50471000D01*
X36250000Y-49590000D02*
X29790000Y-49590000D01*
X31980000Y-50591000D02*
X29973000Y-50591000D01*
X31980000Y-50711000D02*
X30018000Y-50711000D01*
X36244000Y-49710000D02*
X29796000Y-49710000D01*
X36238000Y-49790000D02*
X34060000Y-49790000D01*
X31980000Y-49870000D02*
X29809000Y-49870000D01*
X31980000Y-51271000D02*
X30304000Y-51271000D01*
X31980000Y-51591000D02*
X30536000Y-51591000D01*
X35876000Y-51031000D02*
X34060000Y-51031000D01*
X31980000Y-51151000D02*
X30230000Y-51151000D01*
X35568000Y-51511000D02*
X34060000Y-51511000D01*
X31980000Y-51711000D02*
X30640000Y-51711000D01*
X31980000Y-49830000D02*
X29805000Y-49830000D01*
X33822000Y-52671000D02*
X32218000Y-52671000D01*
X31980000Y-51311000D02*
X30330000Y-51311000D01*
X34964000Y-52111000D02*
X31076000Y-52111000D01*
X35285000Y-51831000D02*
X30755000Y-51831000D01*
X35627000Y-51431000D02*
X34060000Y-51431000D01*
X36290000Y-49510000D02*
G75*
G03*
X36290000Y-49510000I-3270000J0D01*
G01*
%TO.C,R5*%
X49630000Y-80550000D02*
X46890000Y-80550000D01*
X46890000Y-87090000D02*
X49630000Y-87090000D01*
X46890000Y-80550000D02*
X46890000Y-87090000D01*
X48260000Y-87860000D02*
X48260000Y-87090000D01*
X49630000Y-87090000D02*
X49630000Y-80550000D01*
X48260000Y-79780000D02*
X48260000Y-80550000D01*
%TO.C,J10*%
X26670000Y-78740000D02*
X19050000Y-78740000D01*
X19050000Y-88900000D02*
X26670000Y-88900000D01*
X19050000Y-78740000D02*
X19050000Y-88900000D01*
X20320000Y-88900000D02*
X20320000Y-78740000D01*
X26670000Y-88900000D02*
X26670000Y-78740000D01*
%TO.C,J5*%
X82490000Y-34290000D02*
X85150000Y-34290000D01*
X85150000Y-34290000D02*
X85150000Y-41970000D01*
X82490000Y-34290000D02*
X82490000Y-41970000D01*
X82490000Y-41970000D02*
X85150000Y-41970000D01*
X82490000Y-33020000D02*
X82490000Y-31690000D01*
X82490000Y-31690000D02*
X83820000Y-31690000D01*
%TO.C,U3*%
X37930000Y-62710001D02*
X37930000Y-64770000D01*
X37930000Y-67310000D02*
X37465000Y-67310000D01*
X17950000Y-76030000D02*
X37930000Y-76030000D01*
X37930000Y-69370000D02*
X37930000Y-67310000D01*
X37930000Y-62710001D02*
X37930000Y-56050000D01*
X37930000Y-64770000D02*
X37465000Y-64770000D01*
X37930000Y-56050000D02*
X17950000Y-56050000D01*
X37930000Y-76030000D02*
X37930000Y-69370000D01*
X17950000Y-56050000D02*
X17950000Y-76030000D01*
X37465000Y-64770000D02*
G75*
G03*
X37465000Y-67310000I0J-1270000D01*
G01*
%TO.C,SW3*%
X62790000Y-68870000D02*
X62790000Y-73370000D01*
X65290000Y-74620000D02*
X66790000Y-74620000D01*
X69290000Y-73370000D02*
X69290000Y-68870000D01*
X66790000Y-67620000D02*
X65290000Y-67620000D01*
%TO.C,J7*%
X20320000Y-100330000D02*
X20320000Y-107950000D01*
X30480000Y-100330000D02*
X20320000Y-100330000D01*
X30480000Y-107950000D02*
X30480000Y-100330000D01*
X20320000Y-107950000D02*
X30480000Y-107950000D01*
X30480000Y-106680000D02*
X20320000Y-106680000D01*
%TO.C,R9*%
X46450000Y-95350000D02*
X46450000Y-92610000D01*
X39910000Y-92610000D02*
X39910000Y-95350000D01*
X39140000Y-93980000D02*
X39910000Y-93980000D01*
X47220000Y-93980000D02*
X46450000Y-93980000D01*
X39910000Y-95350000D02*
X46450000Y-95350000D01*
X46450000Y-92610000D02*
X39910000Y-92610000D01*
%TO.C,SW1*%
X42470000Y-68870000D02*
X42470000Y-73370000D01*
X48970000Y-73370000D02*
X48970000Y-68870000D01*
X46470000Y-67620000D02*
X44970000Y-67620000D01*
X44970000Y-74620000D02*
X46470000Y-74620000D01*
%TO.C,D6*%
X67120000Y-86650000D02*
X67276000Y-86650000D01*
X64804000Y-86650000D02*
X64960000Y-86650000D01*
X64960163Y-84048870D02*
G75*
G03*
X64960000Y-86130961I1079837J-1041130D01*
G01*
X67120000Y-86130961D02*
G75*
G03*
X67119837Y-84048870I-1080000J1040961D01*
G01*
X67275516Y-86650000D02*
G75*
G03*
X67118608Y-83417665I-1235516J1560000D01*
G01*
X64961392Y-83417665D02*
G75*
G03*
X64804484Y-86650000I1078608J-1672335D01*
G01*
%TO.C,Q1*%
X50060000Y-99750000D02*
X46460000Y-99750000D01*
X46421522Y-99761522D02*
G75*
G03*
X48260000Y-104200000I1838478J-1838478D01*
G01*
X48260000Y-104200001D02*
G75*
G03*
X50098478Y-99761522I0J2600001D01*
G01*
%TO.C,D5*%
X62380000Y-33440000D02*
X62380000Y-37680000D01*
X63500000Y-38330000D02*
X63500000Y-37680000D01*
X62380000Y-37080000D02*
X64620000Y-37080000D01*
X62380000Y-36960000D02*
X64620000Y-36960000D01*
X64620000Y-37680000D02*
X64620000Y-33440000D01*
X64620000Y-33440000D02*
X62380000Y-33440000D01*
X63500000Y-32790000D02*
X63500000Y-33440000D01*
X62380000Y-37680000D02*
X64620000Y-37680000D01*
X62380000Y-36840000D02*
X64620000Y-36840000D01*
%TO.C,R12*%
X35560000Y-87860000D02*
X35560000Y-87090000D01*
X36930000Y-80550000D02*
X34190000Y-80550000D01*
X35560000Y-79780000D02*
X35560000Y-80550000D01*
X34190000Y-87090000D02*
X36930000Y-87090000D01*
X34190000Y-80550000D02*
X34190000Y-87090000D01*
X36930000Y-87090000D02*
X36930000Y-80550000D01*
%TO.C,D1*%
X41710000Y-37380000D02*
X44650000Y-37380000D01*
X44650000Y-38280000D02*
X44650000Y-32840000D01*
X41710000Y-37500000D02*
X44650000Y-37500000D01*
X43180000Y-39300000D02*
X43180000Y-38280000D01*
X41710000Y-37260000D02*
X44650000Y-37260000D01*
X41710000Y-32840000D02*
X41710000Y-38280000D01*
X44650000Y-32840000D02*
X41710000Y-32840000D01*
X43180000Y-31820000D02*
X43180000Y-32840000D01*
X41710000Y-38280000D02*
X44650000Y-38280000D01*
%TO.C,J9*%
X83820000Y-106680000D02*
X73660000Y-106680000D01*
X73660000Y-100330000D02*
X73660000Y-107950000D01*
X73660000Y-107950000D02*
X83820000Y-107950000D01*
X83820000Y-107950000D02*
X83820000Y-100330000D01*
X83820000Y-100330000D02*
X73660000Y-100330000D01*
%TO.C,R1*%
X66860000Y-40180000D02*
X70300000Y-40180000D01*
X66860000Y-30940000D02*
X66860000Y-40180000D01*
X70300000Y-40180000D02*
X70300000Y-30940000D01*
X68580000Y-40870000D02*
X68580000Y-40180000D01*
X68580000Y-30250000D02*
X68580000Y-30940000D01*
X70300000Y-30940000D02*
X66860000Y-30940000D01*
%TO.C,R2*%
X73660000Y-39600000D02*
X73660000Y-38830000D01*
X75030000Y-38830000D02*
X75030000Y-32290000D01*
X75030000Y-32290000D02*
X72290000Y-32290000D01*
X73660000Y-31520000D02*
X73660000Y-32290000D01*
X72290000Y-38830000D02*
X75030000Y-38830000D01*
X72290000Y-32290000D02*
X72290000Y-38830000D01*
%TO.C,D3*%
X39570000Y-33740000D02*
X36630000Y-33740000D01*
X39570000Y-33620000D02*
X36630000Y-33620000D01*
X39570000Y-33860000D02*
X36630000Y-33860000D01*
X39570000Y-32840000D02*
X36630000Y-32840000D01*
X36630000Y-32840000D02*
X36630000Y-38280000D01*
X38100000Y-31820000D02*
X38100000Y-32840000D01*
X36630000Y-38280000D02*
X39570000Y-38280000D01*
X39570000Y-38280000D02*
X39570000Y-32840000D01*
X38100000Y-39300000D02*
X38100000Y-38280000D01*
%TO.C,D7*%
X74740000Y-86650000D02*
X74896000Y-86650000D01*
X72424000Y-86650000D02*
X72580000Y-86650000D01*
X72581392Y-83417665D02*
G75*
G03*
X72424484Y-86650000I1078608J-1672335D01*
G01*
X74740000Y-86130961D02*
G75*
G03*
X74739837Y-84048870I-1080000J1040961D01*
G01*
X74895516Y-86650000D02*
G75*
G03*
X74738608Y-83417665I-1235516J1560000D01*
G01*
X72580163Y-84048870D02*
G75*
G03*
X72580000Y-86130961I1079837J-1041130D01*
G01*
%TO.C,R11*%
X82010000Y-95350000D02*
X82010000Y-92610000D01*
X74700000Y-93980000D02*
X75470000Y-93980000D01*
X82010000Y-92610000D02*
X75470000Y-92610000D01*
X82780000Y-93980000D02*
X82010000Y-93980000D01*
X75470000Y-92610000D02*
X75470000Y-95350000D01*
X75470000Y-95350000D02*
X82010000Y-95350000D01*
%TO.C,G\u002A\u002A\u002A*%
G36*
X56336434Y-19988300D02*
G01*
X56572757Y-20048948D01*
X56580580Y-20051585D01*
X56804509Y-20127747D01*
X56804509Y-20382223D01*
X56803235Y-20509385D01*
X56797014Y-20586136D01*
X56782246Y-20626030D01*
X56755332Y-20642622D01*
X56734280Y-20646693D01*
X56687984Y-20641783D01*
X56648737Y-20603404D01*
X56605003Y-20518994D01*
X56594065Y-20494003D01*
X56493665Y-20323496D01*
X56359185Y-20204290D01*
X56186475Y-20133884D01*
X55971383Y-20109775D01*
X55956776Y-20109747D01*
X55760087Y-20140086D01*
X55589483Y-20226299D01*
X55451173Y-20363446D01*
X55351361Y-20546588D01*
X55330276Y-20608352D01*
X55303354Y-20746089D01*
X55288791Y-20924148D01*
X55286490Y-21120096D01*
X55296354Y-21311501D01*
X55318284Y-21475928D01*
X55334346Y-21543057D01*
X55405928Y-21707074D01*
X55511099Y-21850667D01*
X55635396Y-21955933D01*
X55691332Y-21985042D01*
X55815378Y-22016148D01*
X55969486Y-22026684D01*
X56123910Y-22016693D01*
X56248901Y-21986220D01*
X56253710Y-21984217D01*
X56378647Y-21905440D01*
X56489464Y-21791691D01*
X56561758Y-21668375D01*
X56593035Y-21610501D01*
X56643172Y-21585435D01*
X56723742Y-21580403D01*
X56807456Y-21585894D01*
X56844147Y-21610144D01*
X56838078Y-21664819D01*
X56793515Y-21761587D01*
X56791444Y-21765619D01*
X56670178Y-21934142D01*
X56504100Y-22065607D01*
X56303366Y-22155699D01*
X56078129Y-22200103D01*
X55838544Y-22194504D01*
X55796826Y-22188220D01*
X55551348Y-22117104D01*
X55342494Y-21995917D01*
X55173464Y-21829144D01*
X55047457Y-21621271D01*
X54967674Y-21376782D01*
X54937314Y-21100162D01*
X54939453Y-20986568D01*
X54980530Y-20717527D01*
X55071389Y-20480063D01*
X55208035Y-20279673D01*
X55386470Y-20121853D01*
X55602698Y-20012099D01*
X55661969Y-19992880D01*
X55860324Y-19958943D01*
X56092051Y-19957857D01*
X56336434Y-19988300D01*
G37*
G36*
X58044119Y-19988435D02*
G01*
X59011814Y-19996901D01*
X59030500Y-20492745D01*
X58933185Y-20492745D01*
X58875581Y-20489357D01*
X58846856Y-20468187D01*
X58836968Y-20412727D01*
X58835869Y-20332796D01*
X58835869Y-20172846D01*
X58196071Y-20172846D01*
X58196071Y-21996272D01*
X58340025Y-21996272D01*
X58428857Y-21999586D01*
X58470944Y-22015880D01*
X58483430Y-22054676D01*
X58483980Y-22076246D01*
X58483980Y-22156221D01*
X57620252Y-22156221D01*
X57620252Y-22076246D01*
X57627236Y-22024720D01*
X57660180Y-22001818D01*
X57737068Y-21996300D01*
X57748212Y-21996272D01*
X57876172Y-21996272D01*
X57876172Y-20172846D01*
X57268363Y-20172846D01*
X57268363Y-20332796D01*
X57266266Y-20427482D01*
X57253375Y-20474698D01*
X57219785Y-20490949D01*
X57172393Y-20492745D01*
X57076423Y-20492745D01*
X57076423Y-19979968D01*
X58044119Y-19988435D01*
G37*
G36*
X60196711Y-20749884D02*
G01*
X60578265Y-21518861D01*
X60962366Y-20749884D01*
X61346467Y-19980906D01*
X61642679Y-19980906D01*
X61781319Y-19981499D01*
X61868118Y-19985462D01*
X61915214Y-19996073D01*
X61934746Y-20016609D01*
X61938853Y-20050347D01*
X61938892Y-20060881D01*
X61932925Y-20110232D01*
X61903597Y-20133614D01*
X61833765Y-20140551D01*
X61794937Y-20140856D01*
X61650983Y-20140856D01*
X61650983Y-21996272D01*
X61794937Y-21996272D01*
X61883769Y-21999586D01*
X61925856Y-22015880D01*
X61938342Y-22054676D01*
X61938892Y-22076246D01*
X61938892Y-22156221D01*
X61075164Y-22156221D01*
X61075164Y-22076246D01*
X61081131Y-22026896D01*
X61110459Y-22003514D01*
X61180291Y-21996577D01*
X61219119Y-21996272D01*
X61363073Y-21996272D01*
X61361256Y-21172531D01*
X61359439Y-20348791D01*
X60985693Y-21092556D01*
X60872438Y-21317614D01*
X60783731Y-21491967D01*
X60715415Y-21622086D01*
X60663332Y-21714443D01*
X60623322Y-21775511D01*
X60591228Y-21811761D01*
X60562890Y-21829666D01*
X60534151Y-21835697D01*
X60507799Y-21836322D01*
X60475381Y-21835122D01*
X60446805Y-21827163D01*
X60417843Y-21805905D01*
X60384269Y-21764808D01*
X60341853Y-21697332D01*
X60286370Y-21596936D01*
X60213590Y-21457082D01*
X60119286Y-21271228D01*
X60037344Y-21108551D01*
X59671038Y-20380780D01*
X59669323Y-21188526D01*
X59667607Y-21996272D01*
X59795567Y-21996272D01*
X59878009Y-22000637D01*
X59914652Y-22021226D01*
X59923481Y-22069282D01*
X59923527Y-22076246D01*
X59923527Y-22156221D01*
X59187758Y-22156221D01*
X59187758Y-22076246D01*
X59193725Y-22026896D01*
X59223053Y-22003514D01*
X59292885Y-21996577D01*
X59331713Y-21996272D01*
X59475668Y-21996272D01*
X59475668Y-20140856D01*
X59331713Y-20140856D01*
X59242882Y-20137541D01*
X59200794Y-20121248D01*
X59188308Y-20082452D01*
X59187758Y-20060881D01*
X59189767Y-20024301D01*
X59203655Y-20001024D01*
X59241220Y-19988044D01*
X59314258Y-19982353D01*
X59434563Y-19980945D01*
X59501457Y-19980906D01*
X59815156Y-19980906D01*
X60196711Y-20749884D01*
G37*
G36*
X57091047Y-23361258D02*
G01*
X57238038Y-23127914D01*
X57424972Y-22933260D01*
X57644262Y-22781309D01*
X57888319Y-22676074D01*
X58149557Y-22621569D01*
X58420386Y-22621809D01*
X58693220Y-22680808D01*
X58747897Y-22700216D01*
X58899849Y-22757883D01*
X58899849Y-22124231D01*
X59091789Y-22124231D01*
X59091789Y-22867024D01*
X59249451Y-23039531D01*
X59346683Y-23158908D01*
X59439617Y-23294330D01*
X59497372Y-23395906D01*
X59537002Y-23481708D01*
X59563001Y-23557598D01*
X59578205Y-23640907D01*
X59585450Y-23748965D01*
X59587571Y-23899104D01*
X59587633Y-23947657D01*
X59586387Y-24111715D01*
X59580762Y-24229142D01*
X59567922Y-24317270D01*
X59545031Y-24393430D01*
X59509254Y-24474953D01*
X59497372Y-24499408D01*
X59425532Y-24623065D01*
X59330313Y-24758102D01*
X59249451Y-24855783D01*
X59091789Y-25028290D01*
X59091789Y-25771083D01*
X58899849Y-25771083D01*
X58899849Y-25134549D01*
X58795882Y-25177845D01*
X58541343Y-25253451D01*
X58275044Y-25278033D01*
X58082038Y-25261231D01*
X57794937Y-25181041D01*
X57540853Y-25048749D01*
X57324936Y-24869055D01*
X57152335Y-24646659D01*
X57028201Y-24386261D01*
X56991587Y-24266038D01*
X56934293Y-24043627D01*
X57135320Y-24043627D01*
X57156770Y-24147594D01*
X57238618Y-24394995D01*
X57372341Y-24617403D01*
X57549284Y-24806124D01*
X57760792Y-24952465D01*
X57998209Y-25047733D01*
X58069560Y-25064350D01*
X58169090Y-25083517D01*
X58237253Y-25092587D01*
X58298908Y-25091543D01*
X58378913Y-25080364D01*
X58473234Y-25064043D01*
X58573757Y-25042080D01*
X58640146Y-25018853D01*
X58657909Y-25000063D01*
X58619048Y-24985249D01*
X58535095Y-24974876D01*
X58434107Y-24971335D01*
X58328740Y-24969329D01*
X58254462Y-24964085D01*
X58228061Y-24957168D01*
X58242804Y-24923282D01*
X58279606Y-24855985D01*
X58294090Y-24831090D01*
X58360120Y-24719178D01*
X58262100Y-24668490D01*
X58196540Y-24642718D01*
X58164835Y-24646778D01*
X58164081Y-24650614D01*
X58134683Y-24668619D01*
X58056641Y-24680332D01*
X57972141Y-24683425D01*
X57780202Y-24683425D01*
X57780202Y-24389437D01*
X58164081Y-24389437D01*
X58314350Y-24477500D01*
X58411271Y-24526869D01*
X58466548Y-24537899D01*
X58476823Y-24528953D01*
X58504360Y-24477827D01*
X58548273Y-24419948D01*
X58591681Y-24375062D01*
X58617702Y-24362915D01*
X58618247Y-24363526D01*
X58639974Y-24395901D01*
X58687802Y-24468555D01*
X58752952Y-24568131D01*
X58781206Y-24611448D01*
X58853273Y-24716144D01*
X58915730Y-24796263D01*
X58958536Y-24839322D01*
X58967767Y-24843375D01*
X59008348Y-24821652D01*
X59073074Y-24766148D01*
X59115377Y-24723413D01*
X59258720Y-24525806D01*
X59356952Y-24295700D01*
X59407026Y-24048260D01*
X59405895Y-23798653D01*
X59350513Y-23562045D01*
X59349338Y-23558898D01*
X59288854Y-23425710D01*
X59211658Y-23294813D01*
X59128516Y-23181272D01*
X59050196Y-23100148D01*
X58999135Y-23068987D01*
X58943727Y-23075673D01*
X58842751Y-23117569D01*
X58694047Y-23195681D01*
X58551038Y-23277965D01*
X58164081Y-23506349D01*
X58164081Y-24389437D01*
X57780202Y-24389437D01*
X57780202Y-24043627D01*
X57135320Y-24043627D01*
X56934293Y-24043627D01*
X56765434Y-24043627D01*
X56667431Y-24041820D01*
X56617334Y-24030309D01*
X56599073Y-23999962D01*
X56596575Y-23947657D01*
X56599754Y-23891958D01*
X56620007Y-23863486D01*
X56673403Y-23853107D01*
X56765434Y-23851687D01*
X56934293Y-23851687D01*
X57135320Y-23851687D01*
X57780202Y-23851687D01*
X57780202Y-23211889D01*
X57969475Y-23211889D01*
X58072111Y-23216756D01*
X58145072Y-23229378D01*
X58169413Y-23243238D01*
X58198312Y-23239880D01*
X58267179Y-23209986D01*
X58362070Y-23161476D01*
X58469043Y-23102269D01*
X58574156Y-23040284D01*
X58663466Y-22983442D01*
X58723030Y-22939662D01*
X58739900Y-22919190D01*
X58710456Y-22889131D01*
X58632260Y-22860542D01*
X58520508Y-22836776D01*
X58390398Y-22821185D01*
X58276046Y-22816868D01*
X58014302Y-22848581D01*
X57773174Y-22936832D01*
X57559911Y-23075593D01*
X57381760Y-23258834D01*
X57245970Y-23480526D01*
X57159788Y-23734641D01*
X57156988Y-23747720D01*
X57135320Y-23851687D01*
X56934293Y-23851687D01*
X56991587Y-23629276D01*
X57091047Y-23361258D01*
G37*
%TO.C,J1*%
X22860000Y-20320000D02*
X33020000Y-20320000D01*
X22860000Y-19050000D02*
X22860000Y-26670000D01*
X33020000Y-26670000D02*
X33020000Y-19050000D01*
X33020000Y-19050000D02*
X22860000Y-19050000D01*
X22860000Y-26670000D02*
X33020000Y-26670000D01*
%TO.C,J3*%
X83820000Y-81280000D02*
X83820000Y-66040000D01*
X77470000Y-81280000D02*
X77470000Y-66040000D01*
X85090000Y-81280000D02*
X85090000Y-66040000D01*
X85090000Y-66040000D02*
X77470000Y-66040000D01*
X85090000Y-81280000D02*
X77470000Y-81280000D01*
%TO.C,J2*%
X66040000Y-26670000D02*
X76200000Y-26670000D01*
X76200000Y-26670000D02*
X76200000Y-19050000D01*
X76200000Y-19050000D02*
X66040000Y-19050000D01*
X66040000Y-20320000D02*
X76200000Y-20320000D01*
X66040000Y-19050000D02*
X66040000Y-26670000D01*
%TO.C,R3*%
X78740000Y-39600000D02*
X78740000Y-38830000D01*
X80110000Y-32290000D02*
X77370000Y-32290000D01*
X78740000Y-31520000D02*
X78740000Y-32290000D01*
X77370000Y-32290000D02*
X77370000Y-38830000D01*
X77370000Y-38830000D02*
X80110000Y-38830000D01*
X80110000Y-38830000D02*
X80110000Y-32290000D01*
%TD*%
M02*
