%TF.GenerationSoftware,KiCad,Pcbnew,(6.0.6)*%
%TF.CreationDate,2023-11-02T23:17:45+01:00*%
%TF.ProjectId,DA02,44413032-2e6b-4696-9361-645f70636258,1.0*%
%TF.SameCoordinates,Original*%
%TF.FileFunction,Soldermask,Top*%
%TF.FilePolarity,Negative*%
%FSLAX46Y46*%
G04 Gerber Fmt 4.6, Leading zero omitted, Abs format (unit mm)*
G04 Created by KiCad (PCBNEW (6.0.6)) date 2023-11-02 23:17:45*
%MOMM*%
%LPD*%
G01*
G04 APERTURE LIST*
%ADD10C,1.600000*%
%ADD11O,1.600000X1.600000*%
%ADD12R,2.200000X2.200000*%
%ADD13O,2.200000X2.200000*%
%ADD14R,1.050000X1.500000*%
%ADD15O,1.050000X1.500000*%
%ADD16R,1.600000X1.600000*%
%ADD17R,1.700000X1.700000*%
%ADD18O,1.700000X1.700000*%
%ADD19C,3.200000*%
%ADD20R,2.000000X2.000000*%
%ADD21C,2.000000*%
%ADD22R,2.000000X1.905000*%
%ADD23O,2.000000X1.905000*%
%ADD24R,3.000000X3.000000*%
%ADD25C,3.000000*%
%ADD26C,1.200000*%
%ADD27R,1.800000X1.800000*%
%ADD28C,1.800000*%
G04 APERTURE END LIST*
D10*
%TO.C,R10*%
X66040000Y-93980000D03*
D11*
X55880000Y-93980000D03*
%TD*%
D12*
%TO.C,D4*%
X33020000Y-30480000D03*
D13*
X33020000Y-40640000D03*
%TD*%
D14*
%TO.C,Q2*%
X57150000Y-101600000D03*
D15*
X55880000Y-101600000D03*
X54610000Y-101600000D03*
%TD*%
D16*
%TO.C,U2*%
X49540000Y-31760000D03*
D11*
X49540000Y-34300000D03*
X49540000Y-36840000D03*
X49540000Y-39380000D03*
X57160000Y-39380000D03*
X57160000Y-36840000D03*
X57160000Y-34300000D03*
X57160000Y-31760000D03*
%TD*%
D17*
%TO.C,J6*%
X35560000Y-104140000D03*
D18*
X38100000Y-104140000D03*
%TD*%
D17*
%TO.C,J4*%
X73660000Y-76200000D03*
D18*
X73660000Y-73660000D03*
X73660000Y-71120000D03*
%TD*%
D10*
%TO.C,R4*%
X43180000Y-78740000D03*
D11*
X43180000Y-88900000D03*
%TD*%
D17*
%TO.C,J8*%
X66040000Y-104140000D03*
D18*
X68580000Y-104140000D03*
%TD*%
D19*
%TO.C,H4*%
X17780000Y-109220000D03*
%TD*%
D16*
%TO.C,A1*%
X46990000Y-60950000D03*
D11*
X49530000Y-60950000D03*
X52070000Y-60950000D03*
X54610000Y-60950000D03*
X57150000Y-60950000D03*
X59690000Y-60950000D03*
X62230000Y-60950000D03*
X64770000Y-60950000D03*
X67310000Y-60950000D03*
X69850000Y-60950000D03*
X72390000Y-60950000D03*
X74930000Y-60950000D03*
X77470000Y-60950000D03*
X80010000Y-60950000D03*
X82550000Y-60950000D03*
X82550000Y-45710000D03*
X80010000Y-45710000D03*
X77470000Y-45710000D03*
X74930000Y-45710000D03*
X72390000Y-45710000D03*
X69850000Y-45710000D03*
X67310000Y-45710000D03*
X64770000Y-45710000D03*
X62230000Y-45710000D03*
X59690000Y-45710000D03*
X57150000Y-45710000D03*
X54610000Y-45710000D03*
X52070000Y-45710000D03*
X49530000Y-45710000D03*
X46990000Y-45710000D03*
%TD*%
D12*
%TO.C,D2*%
X27940000Y-40640000D03*
D13*
X27940000Y-30480000D03*
%TD*%
D20*
%TO.C,C1*%
X22860000Y-45720000D03*
D21*
X22860000Y-50720000D03*
%TD*%
%TO.C,SW2*%
X53630000Y-67870000D03*
X53630000Y-74370000D03*
X58130000Y-67870000D03*
X58130000Y-74370000D03*
%TD*%
D10*
%TO.C,R8*%
X30480000Y-93980000D03*
D11*
X20320000Y-93980000D03*
%TD*%
D10*
%TO.C,R6*%
X53340000Y-78740000D03*
D11*
X53340000Y-88900000D03*
%TD*%
D22*
%TO.C,U1*%
X20320000Y-38100000D03*
D23*
X20320000Y-35560000D03*
X20320000Y-33020000D03*
%TD*%
D10*
%TO.C,R7*%
X58420000Y-88900000D03*
D11*
X58420000Y-78740000D03*
%TD*%
D19*
%TO.C,H3*%
X86360000Y-109220000D03*
%TD*%
D17*
%TO.C,J11*%
X30480000Y-83820000D03*
D18*
X30480000Y-86360000D03*
%TD*%
D19*
%TO.C,H1*%
X17780000Y-17780000D03*
%TD*%
D16*
%TO.C,C2*%
X33020000Y-48260000D03*
D10*
X33020000Y-50760000D03*
%TD*%
%TO.C,R5*%
X48260000Y-78740000D03*
D11*
X48260000Y-88900000D03*
%TD*%
D24*
%TO.C,J10*%
X22860000Y-81280000D03*
D25*
X22860000Y-86360000D03*
%TD*%
D17*
%TO.C,J5*%
X83820000Y-33020000D03*
D18*
X83820000Y-35560000D03*
X83820000Y-38100000D03*
X83820000Y-40640000D03*
%TD*%
D26*
%TO.C,U3*%
X36830000Y-57150000D03*
X34290000Y-57150000D03*
X31750000Y-57150000D03*
X29210000Y-57150000D03*
X26670000Y-57150000D03*
X24130000Y-57150000D03*
X21590000Y-57150000D03*
X19050000Y-57150000D03*
X19050000Y-74930000D03*
X21590000Y-74930000D03*
X24130000Y-74930000D03*
X26670000Y-74930000D03*
X29210000Y-74930000D03*
X31750000Y-74930000D03*
X34290000Y-74930000D03*
X36830000Y-74930000D03*
%TD*%
D21*
%TO.C,SW3*%
X63790000Y-67870000D03*
X63790000Y-74370000D03*
X68290000Y-67870000D03*
X68290000Y-74370000D03*
%TD*%
D24*
%TO.C,J7*%
X22860000Y-104140000D03*
D25*
X27940000Y-104140000D03*
%TD*%
D10*
%TO.C,R9*%
X38100000Y-93980000D03*
D11*
X48260000Y-93980000D03*
%TD*%
D19*
%TO.C,H2*%
X86360000Y-17780000D03*
%TD*%
D21*
%TO.C,SW1*%
X43470000Y-74370000D03*
X43470000Y-67870000D03*
X47970000Y-67870000D03*
X47970000Y-74370000D03*
%TD*%
D27*
%TO.C,D6*%
X66040000Y-86360000D03*
D28*
X66040000Y-83820000D03*
%TD*%
D14*
%TO.C,Q1*%
X49530000Y-101600000D03*
D15*
X48260000Y-101600000D03*
X46990000Y-101600000D03*
%TD*%
D16*
%TO.C,D5*%
X63500000Y-39370000D03*
D11*
X63500000Y-31750000D03*
%TD*%
D10*
%TO.C,R12*%
X35560000Y-88900000D03*
D11*
X35560000Y-78740000D03*
%TD*%
D12*
%TO.C,D1*%
X43180000Y-40640000D03*
D13*
X43180000Y-30480000D03*
%TD*%
D24*
%TO.C,J9*%
X76200000Y-104140000D03*
D25*
X81280000Y-104140000D03*
%TD*%
D10*
%TO.C,R1*%
X68580000Y-41910000D03*
D11*
X68580000Y-29210000D03*
%TD*%
D10*
%TO.C,R2*%
X73660000Y-30480000D03*
D11*
X73660000Y-40640000D03*
%TD*%
D12*
%TO.C,D3*%
X38100000Y-30480000D03*
D13*
X38100000Y-40640000D03*
%TD*%
D27*
%TO.C,D7*%
X73660000Y-86360000D03*
D28*
X73660000Y-83820000D03*
%TD*%
D10*
%TO.C,R11*%
X83820000Y-93980000D03*
D11*
X73660000Y-93980000D03*
%TD*%
D24*
%TO.C,J1*%
X30480000Y-22860000D03*
D25*
X25400000Y-22860000D03*
%TD*%
D24*
%TO.C,J3*%
X81280000Y-78740000D03*
D25*
X81280000Y-73660000D03*
X81280000Y-68580000D03*
%TD*%
D24*
%TO.C,J2*%
X73660000Y-22860000D03*
D25*
X68580000Y-22860000D03*
%TD*%
D10*
%TO.C,R3*%
X78740000Y-30480000D03*
D11*
X78740000Y-40640000D03*
%TD*%
M02*
